<svg width="20" height="20" viewBox="0 0 20 20" fill="none" xmlns="http://www.w3.org/2000/svg">
<g id="heroicons-outline:chat-alt">
<path id="Vector" d="M6.66667 8.33203H6.675M10 8.33203H10.0083M13.3333 8.33203H13.3417M7.5 13.332H4.16667C3.72464 13.332 3.30072 13.1564 2.98816 12.8439C2.67559 12.5313 2.5 12.1074 2.5 11.6654V4.9987C2.5 4.55667 2.67559 4.13275 2.98816 3.82019C3.30072 3.50763 3.72464 3.33203 4.16667 3.33203H15.8333C16.2754 3.33203 16.6993 3.50763 17.0118 3.82019C17.3244 4.13275 17.5 4.55667 17.5 4.9987V11.6654C17.5 12.1074 17.3244 12.5313 17.0118 12.8439C16.6993 13.1564 16.2754 13.332 15.8333 13.332H11.6667L8.18284 16.8159C7.93086 17.0678 7.5 16.8894 7.5 16.533V13.332Z" stroke="url(#paint0_linear_1895_4793)" stroke-width="1.5" stroke-linecap="round" stroke-linejoin="round"/>
</g>
<defs>
<linearGradient id="paint0_linear_1895_4793" x1="10" y1="17.4987" x2="9.99999" y2="3.33203" gradientUnits="userSpaceOnUse">
<stop stop-color="#36BDB4"/>
<stop offset="1" stop-color="#36BDB4" stop-opacity="0.6"/>
</linearGradient>
</defs>
</svg>
