<svg xmlns="http://www.w3.org/2000/svg" width="16" height="16" viewBox="0 0 16 16" fill="none">
  <g clip-path="url(#clip0_4838_9054)">
    <path fill-rule="evenodd" clip-rule="evenodd" d="M7.52974 5.52925C7.65476 5.40427 7.8243 5.33406 8.00107 5.33406C8.17785 5.33406 8.34739 5.40427 8.47241 5.52925L12.2437 9.30059C12.3074 9.36208 12.3582 9.43565 12.3931 9.51698C12.4281 9.59832 12.4465 9.6858 12.4472 9.77432C12.448 9.86284 12.4311 9.95062 12.3976 10.0326C12.3641 10.1145 12.3146 10.1889 12.252 10.2515C12.1894 10.3141 12.115 10.3636 12.033 10.3971C11.9511 10.4307 11.8633 10.4475 11.7748 10.4468C11.6863 10.446 11.5988 10.4276 11.5175 10.3927C11.4361 10.3577 11.3626 10.3069 11.3011 10.2433L8.00107 6.94325L4.70107 10.2433C4.57534 10.3647 4.40694 10.4319 4.23214 10.4304C4.05734 10.4288 3.89013 10.3587 3.76653 10.2351C3.64292 10.1115 3.57281 9.94432 3.57129 9.76952C3.56977 9.59472 3.63697 9.42632 3.75841 9.30059L7.52974 5.52925Z" fill="#36BDB4"/>
  </g>
  <defs>
    <clipPath id="clip0_4838_9054">
      <rect width="16" height="16" fill="white" transform="matrix(-1 0 0 -1 16 16)"/>
    </clipPath>
  </defs>
</svg>