<svg xmlns="http://www.w3.org/2000/svg" width="16" height="16" viewBox="0 0 16 16" fill="none">
  <g clip-path="url(#clip0_4838_9050)">
    <path fill-rule="evenodd" clip-rule="evenodd" d="M8.47026 10.4707C8.34524 10.5957 8.1757 10.6659 7.99893 10.6659C7.82215 10.6659 7.65261 10.5957 7.52759 10.4707L3.75626 6.69941C3.69259 6.63792 3.6418 6.56435 3.60686 6.48302C3.57192 6.40168 3.55353 6.3142 3.55276 6.22568C3.55199 6.13716 3.56886 6.04938 3.60238 5.96745C3.6359 5.88551 3.6854 5.81108 3.748 5.74848C3.81059 5.68589 3.88503 5.63639 3.96696 5.60287C4.04889 5.56935 4.13667 5.55248 4.22519 5.55325C4.31371 5.55402 4.40119 5.57241 4.48253 5.60735C4.56387 5.64229 4.63743 5.69307 4.69893 5.75675L7.99893 9.05675L11.2989 5.75675C11.4247 5.63531 11.5931 5.56811 11.7679 5.56963C11.9427 5.57115 12.1099 5.64126 12.2335 5.76487C12.3571 5.88847 12.4272 6.05568 12.4287 6.23048C12.4302 6.40528 12.363 6.57368 12.2416 6.69941L8.47026 10.4707Z" fill="#36BDB4"/>
  </g>
  <defs>
    <clipPath id="clip0_4838_9050">
      <rect width="16" height="16" fill="white"/>
    </clipPath>
  </defs>
</svg>