<svg xmlns="http://www.w3.org/2000/svg" width="20" height="20" viewBox="0 0 20 20" fill="none">
  <path fill-rule="evenodd" clip-rule="evenodd" d="M6.90805 10.5883C6.75183 10.432 6.66406 10.2201 6.66406 9.99915C6.66406 9.77818 6.75183 9.56625 6.90805 9.40998L11.6222 4.69581C11.6991 4.61622 11.791 4.55274 11.8927 4.50906C11.9944 4.46539 12.1037 4.4424 12.2144 4.44144C12.325 4.44048 12.4348 4.46156 12.5372 4.50346C12.6396 4.54536 12.7326 4.60724 12.8109 4.68548C12.8891 4.76373 12.951 4.85677 12.9929 4.95918C13.0348 5.0616 13.0559 5.17133 13.0549 5.28198C13.054 5.39263 13.031 5.50198 12.9873 5.60365C12.9436 5.70532 12.8801 5.79727 12.8006 5.87415L8.67555 9.99915L12.8006 14.1241C12.9523 14.2813 13.0363 14.4918 13.0344 14.7103C13.0325 14.9288 12.9449 15.1378 12.7904 15.2923C12.6359 15.4468 12.4269 15.5345 12.2084 15.5364C11.9899 15.5383 11.7794 15.4543 11.6222 15.3025L6.90805 10.5883Z" fill="#9E9E9E"/>
</svg>