<svg xmlns="http://www.w3.org/2000/svg" width="20" height="20" viewBox="0 0 20 20" fill="none">
  <path fill-rule="evenodd" clip-rule="evenodd" d="M13.0844 9.41098C13.2406 9.56726 13.3284 9.77918 13.3284 10.0002C13.3284 10.2211 13.2406 10.433 13.0844 10.5893L8.37024 15.3035C8.29337 15.3831 8.20141 15.4466 8.09974 15.4902C7.99807 15.5339 7.88872 15.5569 7.77807 15.5579C7.66743 15.5588 7.55769 15.5377 7.45528 15.4958C7.35287 15.4539 7.25982 15.3921 7.18158 15.3138C7.10333 15.2356 7.04146 15.1425 6.99956 15.0401C6.95765 14.9377 6.93657 14.828 6.93753 14.7173C6.93849 14.6067 6.96148 14.4973 7.00516 14.3956C7.04883 14.294 7.11231 14.202 7.19191 14.1252L11.3169 10.0002L7.19191 5.87515C7.04011 5.71798 6.95611 5.50748 6.95801 5.28898C6.95991 5.07049 7.04755 4.86147 7.20206 4.70697C7.35656 4.55246 7.56558 4.46482 7.78407 4.46292C8.00257 4.46102 8.21307 4.54502 8.37024 4.69682L13.0844 9.41098Z" fill="#9E9E9E"/>
</svg>