<svg xmlns="http://www.w3.org/2000/svg" width="16" height="16" viewBox="0 0 16 16" fill="none">
  <path fill-rule="evenodd" clip-rule="evenodd" d="M8.47221 10.4703C8.34719 10.5952 8.17766 10.6655 8.00088 10.6655C7.8241 10.6655 7.65456 10.5952 7.52955 10.4703L3.75821 6.69893C3.69454 6.63743 3.64375 6.56387 3.60881 6.48253C3.57387 6.40119 3.55548 6.31371 3.55471 6.22519C3.55394 6.13667 3.57081 6.04889 3.60433 5.96696C3.63785 5.88503 3.68735 5.81059 3.74995 5.748C3.81254 5.6854 3.88698 5.6359 3.96891 5.60238C4.05084 5.56886 4.13863 5.55199 4.22715 5.55276C4.31567 5.55353 4.40315 5.57192 4.48448 5.60686C4.56582 5.6418 4.63938 5.69259 4.70088 5.75626L8.00088 9.05626L11.3009 5.75626C11.4266 5.63482 11.595 5.56762 11.7698 5.56914C11.9446 5.57066 12.1118 5.64078 12.2354 5.76438C12.359 5.88799 12.4291 6.05519 12.4307 6.22999C12.4322 6.40479 12.365 6.57319 12.2435 6.69893L8.47221 10.4703Z"/>
</svg>