<svg xmlns="http://www.w3.org/2000/svg" width="20" height="20" viewBox="0 0 20 20" fill="none">
  <g clip-path="url(#clip0_2629_7806)">
    <path fill-rule="evenodd" clip-rule="evenodd" d="M13.0864 9.41098C13.2426 9.56726 13.3303 9.77918 13.3303 10.0002C13.3303 10.2211 13.2426 10.433 13.0864 10.5893L8.37219 15.3035C8.29532 15.3831 8.20337 15.4466 8.1017 15.4902C8.00003 15.5339 7.89068 15.5569 7.78003 15.5579C7.66938 15.5588 7.55965 15.5377 7.45723 15.4958C7.35482 15.4539 7.26177 15.3921 7.18353 15.3138C7.10529 15.2356 7.04341 15.1425 7.00151 15.0401C6.95961 14.9377 6.93852 14.828 6.93948 14.7173C6.94045 14.6067 6.96343 14.4973 7.00711 14.3956C7.05078 14.294 7.11427 14.202 7.19386 14.1252L11.3189 10.0002L7.19386 5.87515C7.04206 5.71798 6.95807 5.50748 6.95996 5.28898C6.96186 5.07049 7.0495 4.86147 7.20401 4.70697C7.35852 4.55246 7.56753 4.46482 7.78603 4.46292C8.00452 4.46102 8.21503 4.54502 8.37219 4.69682L13.0864 9.41098Z" fill="#9E9E9E"/>
  </g>
  <defs>
    <clipPath id="clip0_2629_7806">
      <rect width="20" height="20" fill="white"/>
    </clipPath>
  </defs>
</svg>