<svg xmlns="http://www.w3.org/2000/svg" width="20" height="20" viewBox="0 0 20 20" fill="none">
  <g clip-path="url(#clip0_2629_7810)">
    <path fill-rule="evenodd" clip-rule="evenodd" d="M6.91 10.5888C6.75378 10.4325 6.66602 10.2206 6.66602 9.99963C6.66602 9.77866 6.75378 9.56674 6.91 9.41047L11.6242 4.6963C11.701 4.61671 11.793 4.55322 11.8947 4.50955C11.9963 4.46588 12.1057 4.44289 12.2163 4.44193C12.327 4.44096 12.4367 4.46205 12.5391 4.50395C12.6415 4.54585 12.7346 4.60773 12.8128 4.68597C12.8911 4.76422 12.953 4.85726 12.9949 4.95967C13.0368 5.06209 13.0578 5.17182 13.0569 5.28247C13.0559 5.39312 13.0329 5.50247 12.9893 5.60414C12.9456 5.70581 12.8821 5.79776 12.8025 5.87463L8.6775 9.99963L12.8025 14.1246C12.9543 14.2818 13.0383 14.4923 13.0364 14.7108C13.0345 14.9293 12.9469 15.1383 12.7924 15.2928C12.6378 15.4473 12.4288 15.535 12.2103 15.5369C11.9918 15.5388 11.7813 15.4548 11.6242 15.303L6.91 10.5888Z" fill="#9E9E9E"/>
  </g>
  <defs>
    <clipPath id="clip0_2629_7810">
      <rect width="20" height="20" fill="white"/>
    </clipPath>
  </defs>
</svg>