<svg xmlns="http://www.w3.org/2000/svg" width="16" height="16" viewBox="0 0 16 16" fill="none">
  <path fill-rule="evenodd" clip-rule="evenodd" d="M7.52779 5.52974C7.65281 5.40476 7.82234 5.33455 7.99912 5.33455C8.1759 5.33455 8.34544 5.40476 8.47045 5.52974L12.2418 9.30107C12.3055 9.36257 12.3562 9.43613 12.3912 9.51747C12.4261 9.59881 12.4445 9.68629 12.4453 9.77481C12.4461 9.86333 12.4292 9.95111 12.3957 10.033C12.3621 10.115 12.3126 10.1894 12.2501 10.252C12.1875 10.3146 12.113 10.3641 12.0311 10.3976C11.9492 10.4311 11.8614 10.448 11.7729 10.4472C11.6843 10.4465 11.5969 10.4281 11.5155 10.3931C11.4342 10.3582 11.3606 10.3074 11.2991 10.2437L7.99912 6.94374L4.69912 10.2437C4.57338 10.3652 4.40498 10.4324 4.23019 10.4309C4.05539 10.4293 3.88818 10.3592 3.76457 10.2356C3.64097 10.112 3.57086 9.94481 3.56934 9.77001C3.56782 9.59521 3.63501 9.42681 3.75645 9.30107L7.52779 5.52974Z"/>
</svg>