<svg xmlns="http://www.w3.org/2000/svg" width="61" height="60" viewBox="0 0 61 60" fill="none">
  <path d="M20.5 25H20.525M30.5 25H30.525M40.5 25H40.525M24.5 40H13C11.6739 40 10.4021 39.4732 9.46447 38.5355C8.52678 37.5979 8 36.3261 8 35V15C8 13.6739 8.52678 12.4021 9.46447 11.4645C10.4021 10.5268 11.6739 10 13 10H48C49.3261 10 50.5978 10.5268 51.5355 11.4645C52.4732 12.4021 53 13.6739 53 15V35C53 36.3261 52.4732 37.5979 51.5355 38.5355C50.5978 39.4732 49.3261 40 48 40H36.5L31.5535 49.0705C31.0987 49.9045 29.9013 49.9045 29.4465 49.0705L24.5 40Z" stroke="#E0E0E0" stroke-width="4" stroke-linecap="round" stroke-linejoin="round"/>
</svg>