<svg xmlns="http://www.w3.org/2000/svg" width="16" height="17" viewBox="0 0 16 17" fill="none">
  <path d="M11.4911 4.75506C11.6648 4.58965 11.896 4.49821 12.1359 4.50003C12.3758 4.50184 12.6056 4.59677 12.7768 4.76478C12.948 4.9328 13.0473 5.16075 13.0536 5.40055C13.0599 5.64034 12.9729 5.87323 12.8108 6.05005L7.88979 12.2044C7.80517 12.2955 7.70305 12.3686 7.58951 12.4194C7.47598 12.4702 7.35338 12.4975 7.22904 12.4998C7.10469 12.5021 6.98116 12.4793 6.86583 12.4328C6.75049 12.3863 6.64573 12.317 6.5578 12.229L3.29441 8.96564C3.20353 8.88096 3.13063 8.77884 3.08008 8.66537C3.02952 8.55191 3.00234 8.42942 3.00014 8.30522C2.99795 8.18102 3.0208 8.05765 3.06732 7.94248C3.11384 7.8273 3.18309 7.72267 3.27093 7.63483C3.35876 7.547 3.46339 7.47775 3.57857 7.43123C3.69375 7.38471 3.81712 7.36186 3.94132 7.36405C4.06552 7.36624 4.188 7.39343 4.30147 7.44398C4.41493 7.49454 4.51705 7.56743 4.60173 7.65831L7.18433 10.2397L11.4677 4.78219C11.4754 4.77269 11.4824 4.76364 11.4911 4.75506Z" fill="white"/>
</svg>