<svg xmlns="http://www.w3.org/2000/svg" width="20" height="20" viewBox="0 0 20 20" fill="none">
<path d="M9.99875 16.6664C10.8744 16.6676 11.7416 16.4956 12.5506 16.1605C13.3596 15.8254 14.0944 15.3337 14.7128 14.7138C15.3328 14.0954 15.8245 13.3606 16.1596 12.5516C16.4947 11.7426 16.6666 10.8754 16.6655 9.99972C16.6666 9.12408 16.4946 8.25684 16.1595 7.44785C15.8244 6.63886 15.3328 5.90407 14.7128 5.28569C14.0944 4.6657 13.3596 4.17402 12.5506 3.83891C11.7416 3.50381 10.8744 3.33188 9.99875 3.33301C9.1231 3.3319 8.25586 3.50383 7.44687 3.83894C6.63788 4.17404 5.90309 4.66571 5.28472 5.28569C4.66474 5.90407 4.17307 6.63886 3.83796 7.44785C3.50286 8.25684 3.33092 9.12408 3.33204 9.99972C3.3309 10.8754 3.50283 11.7426 3.83794 12.5516C4.17304 13.3606 4.66472 14.0954 5.28472 14.7138C5.90309 15.3337 6.63788 15.8254 7.44687 16.1605C8.25586 16.4956 9.1231 16.6675 9.99875 16.6664Z" stroke="#36BDB4" stroke-width="1.5" stroke-linejoin="round"/>
<path d="M7.33203 10.0005L9.33204 12.0005L13.3321 8.00049" stroke="#36BDB4" stroke-width="1.5" stroke-linecap="round" stroke-linejoin="round"/>
</svg>