<svg xmlns="http://www.w3.org/2000/svg" width="20" height="20" viewBox="0 0 20 20" fill="none">
  <path d="M6.66667 8.33252H6.675M10 8.33252H10.0083M13.3333 8.33252H13.3417M7.5 13.3325H4.16667C3.72464 13.3325 3.30072 13.1569 2.98816 12.8444C2.67559 12.5318 2.5 12.1079 2.5 11.6659V4.99919C2.5 4.55716 2.67559 4.13324 2.98816 3.82067C3.30072 3.50811 3.72464 3.33252 4.16667 3.33252H15.8333C16.2754 3.33252 16.6993 3.50811 17.0118 3.82067C17.3244 4.13324 17.5 4.55716 17.5 4.99919V11.6659C17.5 12.1079 17.3244 12.5318 17.0118 12.8444C16.6993 13.1569 16.2754 13.3325 15.8333 13.3325H11.6667L8.18284 16.8163C7.93086 17.0683 7.5 16.8899 7.5 16.5335V13.3325Z" stroke="url(#paint0_linear_4838_9058)" stroke-width="1.5" stroke-linecap="round" stroke-linejoin="round"/>
  <defs>
    <linearGradient id="paint0_linear_4838_9058" x1="10" y1="17.4992" x2="9.99999" y2="3.33252" gradientUnits="userSpaceOnUse">
      <stop stop-color="#36BDB4"/>
      <stop offset="1" stop-color="#36BDB4" stop-opacity="0.6"/>
    </linearGradient>
  </defs>
</svg>