<svg width="20" height="20" viewBox="0 0 20 20" fill="none" xmlns="http://www.w3.org/2000/svg">
<path d="M5.94629 4.51109V4.03599C5.94639 3.76119 6.05562 3.49769 6.24996 3.30341C6.44431 3.10914 6.70785 3 6.98265 3H15.9625C16.2373 3 16.5009 3.10919 16.6953 3.30354C16.8896 3.4979 16.9988 3.7615 16.9988 4.03636V13.0165C16.9987 13.2913 16.8895 13.5548 16.6951 13.7491C16.5008 13.9434 16.2373 14.0525 15.9625 14.0525H14.0526" stroke="url(#paint0_linear_2108_7145)" stroke-width="1.43683" stroke-linecap="square" stroke-linejoin="round"/>
<path d="M13.0165 5.94824H4.03562C3.76089 5.94844 3.49748 6.05771 3.30328 6.25205C3.10909 6.44638 3 6.70987 3 6.9846V15.9644C3 16.2393 3.10919 16.5029 3.30354 16.6972C3.4979 16.8916 3.7615 17.0008 4.03636 17.0008H13.0165C13.2913 17.0007 13.5548 16.8914 13.7491 16.6971C13.9434 16.5028 14.0525 16.2392 14.0525 15.9644V6.98497C14.0526 6.84884 14.0258 6.71404 13.9737 6.58826C13.9217 6.46248 13.8454 6.34819 13.7491 6.25192C13.6529 6.15564 13.5386 6.07927 13.4129 6.02717C13.2871 5.97506 13.1527 5.94824 13.0165 5.94824Z" stroke="url(#paint1_linear_2108_7145)" stroke-width="1.43683" stroke-linejoin="round"/>
<defs>
<linearGradient id="paint0_linear_2108_7145" x1="11.4726" y1="14.0525" x2="11.4725" y2="3" gradientUnits="userSpaceOnUse">
<stop stop-color="#36BDB4"/>
<stop offset="1" stop-color="#36BDB4" stop-opacity="0.6"/>
</linearGradient>
<linearGradient id="paint1_linear_2108_7145" x1="8.52626" y1="17.0008" x2="8.52626" y2="5.94824" gradientUnits="userSpaceOnUse">
<stop stop-color="#36BDB4"/>
<stop offset="1" stop-color="#36BDB4" stop-opacity="0.6"/>
</linearGradient>
</defs>
</svg>
