<svg xmlns="http://www.w3.org/2000/svg" width="16" height="16" viewBox="0 0 16 16" fill="none">
  <path d="M4.33594 4.14237V2.60237C4.33603 2.35375 4.43485 2.11533 4.61069 1.93956C4.78653 1.76378 5.02498 1.66504 5.2736 1.66504H13.3983C13.647 1.66504 13.8855 1.76383 14.0613 1.93968C14.2371 2.11552 14.3359 2.35402 14.3359 2.60271V10.7277C14.3358 10.9763 14.237 11.2147 14.0612 11.3905C13.8853 11.5663 13.6469 11.665 13.3983 11.665H11.8416" stroke="url(#paint0_linear_2060_3044)" stroke-width="1.3" stroke-linecap="round" stroke-linejoin="round"/>
  <path d="M10.7326 4.33203H2.60692C2.35835 4.33221 2.12002 4.43108 1.94432 4.6069C1.76862 4.78273 1.66992 5.02113 1.66992 5.2697V13.3944C1.66992 13.643 1.76871 13.8815 1.94456 14.0574C2.1204 14.2332 2.3589 14.332 2.60759 14.332H10.7326C10.9812 14.3319 11.2196 14.2331 11.3954 14.0573C11.5712 13.8814 11.6699 13.643 11.6699 13.3944V5.27003C11.67 5.14687 11.6457 5.0249 11.5986 4.9111C11.5515 4.7973 11.4825 4.69389 11.3954 4.60679C11.3083 4.51968 11.2049 4.45058 11.0912 4.40344C10.9774 4.3563 10.8558 4.33203 10.7326 4.33203Z" stroke="url(#paint1_linear_2060_3044)" stroke-width="1.3" stroke-linejoin="round"/>
  <defs>
    <linearGradient id="paint0_linear_2060_3044" x1="9.33594" y1="11.665" x2="9.33593" y2="1.66504" gradientUnits="userSpaceOnUse">
      <stop stop-color="#36BDB4"/>
      <stop offset="1" stop-color="#36BDB4" stop-opacity="0.6"/>
    </linearGradient>
    <linearGradient id="paint1_linear_2060_3044" x1="6.66992" y1="14.332" x2="6.66992" y2="4.33203" gradientUnits="userSpaceOnUse">
      <stop stop-color="#36BDB4"/>
      <stop offset="1" stop-color="#36BDB4" stop-opacity="0.6"/>
    </linearGradient>
  </defs>
</svg>