<svg xmlns="http://www.w3.org/2000/svg" width="20" height="20" viewBox="0 0 20 20" fill="none">
  <g clip-path="url(#clip0_4838_9093)">
    <path d="M15.4444 2C15.857 2 16.2527 2.16389 16.5444 2.45561C16.8361 2.74733 17 3.143 17 3.55556V12.8889C17 13.3014 16.8361 13.6971 16.5444 13.9888C16.2527 14.2806 15.857 14.4444 15.4444 14.4444H13.8889V16C13.8889 16.4126 13.725 16.8082 13.4333 17.0999C13.1416 17.3917 12.7459 17.5556 12.3333 17.5556H4.55556C4.143 17.5556 3.74733 17.3917 3.45561 17.0999C3.16389 16.8082 3 16.4126 3 16V6.66667C3 6.25411 3.16389 5.85845 3.45561 5.56672C3.74733 5.275 4.143 5.11111 4.55556 5.11111H6.11111V3.55556C6.11111 3.143 6.275 2.74733 6.56672 2.45561C6.85845 2.16389 7.25411 2 7.66667 2H15.4444ZM12.3333 7.20513C12.3333 6.90774 12.0923 6.66667 11.7949 6.66667H5.09402C4.79663 6.66667 4.55556 6.90774 4.55556 7.20513V15.4615C4.55556 15.7589 4.79663 16 5.09402 16H11.7949C12.0923 16 12.3333 15.7589 12.3333 15.4615V7.20513ZM8.44444 12.1111C8.65072 12.1111 8.84855 12.1931 8.99442 12.3389C9.14028 12.4848 9.22222 12.6826 9.22222 12.8889C9.22222 13.0952 9.14028 13.293 8.99442 13.4389C8.84855 13.5847 8.65072 13.6667 8.44444 13.6667H6.88889C6.68261 13.6667 6.48478 13.5847 6.33892 13.4389C6.19306 13.293 6.11111 13.0952 6.11111 12.8889C6.11111 12.6826 6.19306 12.4848 6.33892 12.3389C6.48478 12.1931 6.68261 12.1111 6.88889 12.1111H8.44444ZM15.4444 4.09402C15.4444 3.79663 15.2034 3.55556 14.906 3.55556H8.20513C7.90774 3.55556 7.66667 3.79663 7.66667 4.09402V5.11111H12.3333C12.7459 5.11111 13.1416 5.275 13.4333 5.56672C13.725 5.85845 13.8889 6.25411 13.8889 6.66667V12.8889H14.906C15.2034 12.8889 15.4444 12.6478 15.4444 12.3504V4.09402ZM10 9C10.1982 9.00022 10.3889 9.07613 10.5331 9.21222C10.6772 9.3483 10.764 9.5343 10.7756 9.7322C10.7872 9.9301 10.7228 10.125 10.5956 10.277C10.4683 10.429 10.2879 10.5267 10.091 10.5501L10 10.5556H6.88889C6.69065 10.5553 6.49997 10.4794 6.35582 10.3433C6.21167 10.2073 6.12493 10.0213 6.11331 9.82336C6.10169 9.62546 6.16608 9.43059 6.29332 9.27858C6.42055 9.12656 6.60104 9.02886 6.79789 9.00544L6.88889 9H10Z" fill="url(#paint0_linear_4838_9093)"/>
  </g>
  <defs>
    <linearGradient id="paint0_linear_4838_9093" x1="10" y1="17.5556" x2="9.99999" y2="2" gradientUnits="userSpaceOnUse">
      <stop stop-color="#36BDB4"/>
      <stop offset="1" stop-color="#36BDB4" stop-opacity="0.6"/>
    </linearGradient>
    <clipPath id="clip0_4838_9093">
      <rect width="20" height="20" fill="white"/>
    </clipPath>
  </defs>
</svg>