<svg xmlns="http://www.w3.org/2000/svg" width="20" height="20" viewBox="0 0 20 20" fill="none">
<path fill-rule="evenodd" clip-rule="evenodd" d="M12.8 12.4L13.4545 13.0545V10.7455C13.455 10.5399 13.5248 10.3673 13.664 10.2276C13.8032 10.088 13.9758 10.0182 14.1818 10.0182C14.3874 10.0187 14.56 10.0885 14.6996 10.2276C14.8393 10.3668 14.9091 10.5394 14.9091 10.7455V13.0545L15.5636 12.4C15.697 12.2667 15.8667 12.2 16.0727 12.2C16.2788 12.2 16.4485 12.2667 16.5818 12.4C16.7151 12.5333 16.7818 12.703 16.7818 12.9091C16.7818 13.1152 16.7151 13.2848 16.5818 13.4182L14.6909 15.3091C14.5455 15.4545 14.3758 15.5273 14.1818 15.5273C13.9879 15.5273 13.8182 15.4545 13.6727 15.3091L11.7818 13.4182C11.6485 13.2848 11.5818 13.1152 11.5818 12.9091C11.5818 12.703 11.6485 12.5333 11.7818 12.4C11.9151 12.2667 12.0848 12.2 12.2909 12.2C12.497 12.2 12.6667 12.2667 12.8 12.4ZM16.8822 16.7549C16.7425 16.6153 16.5697 16.5455 16.3636 16.5455H12C11.7944 16.5459 11.6218 16.6158 11.4822 16.7549C11.3425 16.8941 11.2727 17.0667 11.2727 17.2727C11.2732 17.4783 11.343 17.6509 11.4822 17.7905C11.6213 17.9302 11.7939 18 12 18H16.3636C16.5692 18.0005 16.7418 17.9309 16.8815 17.7913C17.0211 17.6516 17.0909 17.4788 17.0909 17.2727C17.0914 17.0672 17.0218 16.8945 16.8822 16.7549ZM4.42764 14.664C4.71224 14.9486 5.05455 15.0909 5.45455 15.0909H9.27273C9.4783 15.0914 9.65091 15.0218 9.79054 14.8822C9.93018 14.7425 10 14.5697 10 14.3636C10.0005 14.1581 9.93091 13.9855 9.79127 13.8458C9.65164 13.7062 9.47879 13.6364 9.27273 13.6364H5.95455C5.6784 13.6364 5.45455 13.4125 5.45455 13.1364V3.95455C5.45455 3.6784 5.6784 3.45455 5.95455 3.45455H9.81818V6C9.81867 6.30351 9.92485 6.56121 10.1367 6.77309C10.3486 6.98497 10.6061 7.09091 10.9091 7.09091H13.4545V7.91546C13.455 8.12055 13.5248 8.29291 13.664 8.43255C13.8032 8.57218 13.9758 8.642 14.1818 8.642C14.3874 8.64152 14.56 8.5717 14.6996 8.43255C14.8393 8.2934 14.9091 8.12079 14.9091 7.91473V6.96364C14.9091 6.77018 14.8727 6.58545 14.8 6.40945C14.7273 6.23345 14.6242 6.07879 14.4909 5.94545L10.9636 2.41818C10.8308 2.28485 10.6764 2.18182 10.5004 2.10909C10.3244 2.03636 10.1394 2 9.94545 2H5.45455C5.05503 2.00048 4.71273 2.14303 4.42764 2.42764C4.14255 2.71224 4 3.05455 4 3.45455V13.6364C4.00048 14.0368 4.14303 14.3794 4.42764 14.664ZM12.5 6L11 4.5002V4.88877V5.44438C11 5.88888 11.3704 6 11.5556 6H12.1111H12.5Z" fill="url(#paint0_linear_2438_8063)"/>
<defs>
<linearGradient id="paint0_linear_2438_8063" x1="10.5455" y1="18" x2="10.5454" y2="2" gradientUnits="userSpaceOnUse">
<stop stop-color="#36BDB4"/>
<stop offset="1" stop-color="#36BDB4" stop-opacity="0.6"/>
</linearGradient>
</defs>
</svg>