<svg xmlns="http://www.w3.org/2000/svg" width="20" height="20" viewBox="0 0 20 20" fill="none">
  <path d="M17.9517 10.2243C17.951 9.82409 17.6264 9.5 17.2261 9.5C16.8253 9.5 16.5004 9.82489 16.5004 10.2257V15.9375C16.5004 16.2136 16.2766 16.4375 16.0004 16.4375H4.00023C3.72409 16.4375 3.50023 16.2136 3.50023 15.9375V4.6C3.50023 4.32386 3.72409 4.1 4.00023 4.1H9.20034C9.64216 4.1 10.0003 3.74183 10.0003 3.3C10.0003 2.85817 9.64216 2.5 9.20033 2.5H3.50023C3.29827 2.50634 3.09962 2.55307 2.91602 2.63746C2.73242 2.72184 2.56759 2.84216 2.43126 2.9913C2.29494 3.14045 2.18987 3.3154 2.12228 3.50582C2.05469 3.69624 2.02594 3.89828 2.03773 4.1V16.4375C2.03106 16.6362 2.0636 16.8342 2.13351 17.0202C2.20341 17.2063 2.3093 17.3768 2.44513 17.5219C2.58095 17.667 2.74405 17.7839 2.92509 17.8659C3.10614 17.948 3.30157 17.9935 3.50023 18H16.5004C16.6991 17.9935 16.8945 17.948 17.0756 17.8659C17.2566 17.7839 17.4197 17.667 17.5555 17.5219C17.6914 17.3768 17.7973 17.2063 17.8672 17.0202C17.9371 16.8342 17.9696 16.6362 17.9629 16.4375L17.9517 10.2243Z" fill="#36BDB4"/>
  <path d="M11.8387 4.37337L7.43867 8.68589L6.88867 9.23589L6.78867 9.33589L5.12637 13.0609C4.99887 13.3145 4.95458 13.6018 4.99976 13.882C5.04493 14.1622 5.17723 14.4211 5.37796 14.6218C5.57869 14.8225 5.83747 14.9548 6.11773 15C6.39799 15.0452 6.68523 15.0009 6.93887 14.8734L10.6262 13.1859L11.2887 12.5234L11.8262 11.9859L16.2262 7.66087L16.7887 7.11087L17.1012 6.79837C17.6112 6.28748 17.8974 5.59517 17.8974 4.87337C17.8974 4.15156 17.6112 3.45925 17.1012 2.94837C16.5926 2.44358 15.9053 2.16048 15.1887 2.16087C14.4683 2.15989 13.7768 2.44284 13.2637 2.94837L12.3887 3.81087L11.8262 4.36087L11.8387 4.37337ZM6.78887 13.1859L8.02617 10.3734L9.58867 11.9484L6.78887 13.1859ZM9.05117 9.21089L12.9012 5.44837L14.5262 7.08587L10.7262 10.9109L9.05117 9.21089ZM15.1262 3.69837C15.2773 3.69785 15.4269 3.72743 15.5664 3.78538C15.7059 3.84333 15.8324 3.92848 15.9387 4.03587C16.1547 4.25361 16.2759 4.5479 16.2759 4.85462C16.2759 5.16134 16.1547 5.45563 15.9387 5.67337L15.6262 5.97337L14.0012 4.34837L14.3137 4.03587C14.4265 3.92478 14.5619 3.83935 14.7108 3.78541C14.8597 3.73148 15.0184 3.71032 15.1762 3.72337L15.1262 3.69837Z" fill="#36BDB4"/>
</svg>