<svg xmlns="http://www.w3.org/2000/svg" width="60" height="60" viewBox="0 0 60 60" fill="none">
<path d="M20 25H20.025M30 25H30.025M40 25H40.025M24 40H12.5C11.1739 40 9.90215 39.4732 8.96447 38.5355C8.02678 37.5979 7.5 36.3261 7.5 35V15C7.5 13.6739 8.02678 12.4021 8.96447 11.4645C9.90215 10.5268 11.1739 10 12.5 10H47.5C48.8261 10 50.0978 10.5268 51.0355 11.4645C51.9732 12.4021 52.5 13.6739 52.5 15V35C52.5 36.3261 51.9732 37.5979 51.0355 38.5355C50.0978 39.4732 48.8261 40 47.5 40H36L31.0535 49.0705C30.5987 49.9045 29.4013 49.9045 28.9465 49.0705L24 40Z" stroke="#E0E0E0" stroke-width="4" stroke-linecap="round" stroke-linejoin="round"/>
</svg>