<svg xmlns="http://www.w3.org/2000/svg" width="20" height="20" viewBox="0 0 20 20" fill="none">
<path d="M6.88889 8.19401H6.89667M10 8.19401H10.0078M13.1111 8.19401H13.1189M7.66667 12.8607H4.55556C4.143 12.8607 3.74733 12.6968 3.45561 12.4051C3.16389 12.1133 3 11.7177 3 11.3051V5.0829C3 4.67034 3.16389 4.27468 3.45561 3.98296C3.74733 3.69123 4.143 3.52734 4.55556 3.52734H15.4444C15.857 3.52734 16.2527 3.69123 16.5444 3.98296C16.8361 4.27468 17 4.67034 17 5.0829V11.3051C17 11.7177 16.8361 12.1133 16.5444 12.4051C16.2527 12.6968 15.857 12.8607 15.4444 12.8607H11.5556L8.30399 16.1122C8.0688 16.3474 7.66667 16.1809 7.66667 15.8483V12.8607Z" stroke="url(#paint0_linear_2010_7183)" stroke-width="1.5" stroke-linecap="round" stroke-linejoin="round"/>
<defs>
<linearGradient id="paint0_linear_2010_7183" x1="10" y1="16.7496" x2="10" y2="3.52734" gradientUnits="userSpaceOnUse">
<stop stop-color="#36BDB4"/>
<stop offset="1" stop-color="#36BDB4" stop-opacity="0.6"/>
</linearGradient>
</defs>
</svg>