<svg width="48" height="48" viewBox="0 0 48 48" fill="none" xmlns="http://www.w3.org/2000/svg">
<path d="M26.1399 24.0007H16.1401C15.6097 24.0007 15.101 24.2114 14.7259 24.5864C14.3508 24.9615 14.1401 25.4702 14.1401 26.0006C14.1401 26.5311 14.3508 27.0398 14.7259 27.4148C15.101 27.7899 15.6097 28.0006 16.1401 28.0006H26.1399C26.6704 28.0006 27.1791 27.7899 27.5541 27.4148C27.9292 27.0398 28.1399 26.5311 28.1399 26.0006C28.1399 25.4702 27.9292 24.9615 27.5541 24.5864C27.1791 24.2114 26.6704 24.0007 26.1399 24.0007ZM28.1399 40.0004H12.1401C11.6097 40.0004 11.101 39.7897 10.726 39.4146C10.3509 39.0396 10.1402 38.5309 10.1402 38.0005V10.0009C10.1402 9.47046 10.3509 8.96176 10.726 8.58669C11.101 8.21163 11.6097 8.00091 12.1401 8.00091H22.14V14.0008C22.14 15.5921 22.7721 17.1182 23.8973 18.2434C25.0225 19.3686 26.5486 20.0007 28.1399 20.0007H34.1398V22.0007C34.1398 22.5311 34.3505 23.0398 34.7256 23.4149C35.1007 23.79 35.6094 24.0007 36.1398 24.0007C36.6702 24.0007 37.1789 23.79 37.554 23.4149C37.929 23.0398 38.1397 22.5311 38.1397 22.0007V18.0008C38.1484 17.9612 38.1484 17.9203 38.1397 17.8808C38.1228 17.6943 38.0755 17.512 37.9997 17.3408V17.1608C37.9036 16.9551 37.7753 16.7661 37.6198 16.6008L25.6199 4.60097C25.4502 4.4415 25.2539 4.3129 25.0399 4.22097C25.0399 4.22097 24.9399 4.22097 24.8799 4.22097C24.6829 4.10693 24.4655 4.03222 24.24 4.00098H12.2401C10.6489 4.00098 9.12277 4.63311 7.99757 5.75831C6.87237 6.88351 6.24023 8.40961 6.24023 10.0009V38.0005C6.24023 39.5917 6.87237 41.1178 7.99757 42.243C9.12277 43.3682 10.6489 44.0004 12.2401 44.0004H28.2399C28.7703 44.0004 29.279 43.7896 29.6541 43.4146C30.0292 43.0395 30.2399 42.5308 30.2399 42.0004C30.2399 41.47 30.0292 40.9613 29.6541 40.5862C29.279 40.2111 28.7703 40.0004 28.2399 40.0004H28.1399ZM26.1399 10.8209L31.2999 16.0008H28.1399C27.6095 16.0008 27.1008 15.7901 26.7257 15.415C26.3506 15.0399 26.1399 14.5312 26.1399 14.0008V10.8209ZM37.2798 40.5804C37.1847 40.4944 37.0845 40.4143 36.9798 40.3404C36.76 40.1976 36.516 40.0959 36.2598 40.0404C35.9385 39.9761 35.6063 39.9917 35.2924 40.0858C34.9786 40.18 34.6926 40.3498 34.4598 40.5804C34.2723 40.7663 34.1236 40.9875 34.022 41.2312C33.9205 41.475 33.8682 41.7364 33.8682 42.0004C33.8682 42.2644 33.9205 42.5258 34.022 42.7695C34.1236 43.0132 34.2723 43.2344 34.4598 43.4204C34.8323 43.7898 35.3351 43.9981 35.8598 44.0004C36.189 44.002 36.5136 43.9223 36.8047 43.7684C37.0957 43.6145 37.3443 43.3911 37.5283 43.1181C37.7123 42.8451 37.8261 42.5308 37.8595 42.2033C37.8929 41.8757 37.8449 41.545 37.7198 41.2404C37.611 40.9973 37.4623 40.7743 37.2798 40.5804ZM26.1399 32.0005H16.1401C15.6097 32.0005 15.101 32.2113 14.7259 32.5863C14.3508 32.9614 14.1401 33.4701 14.1401 34.0005C14.1401 34.5309 14.3508 35.0396 14.7259 35.4147C15.101 35.7898 15.6097 36.0005 16.1401 36.0005H26.1399C26.6704 36.0005 27.1791 35.7898 27.5541 35.4147C27.9292 35.0396 28.1399 34.5309 28.1399 34.0005C28.1399 33.4701 27.9292 32.9614 27.5541 32.5863C27.1791 32.2113 26.6704 32.0005 26.1399 32.0005ZM35.8598 26.0006C34.8059 26 33.7705 26.2769 32.8576 26.8035C31.9448 27.3301 31.1868 28.0879 30.6599 29.0006C30.5285 29.2291 30.4435 29.4812 30.4096 29.7426C30.3757 30.0039 30.3937 30.2694 30.4624 30.5238C30.5311 30.7783 30.6493 31.0167 30.8101 31.2254C30.971 31.4342 31.1714 31.6092 31.3998 31.7405C31.6283 31.8719 31.8805 31.9569 32.1418 31.9908C32.4032 32.0247 32.6687 32.0067 32.9231 31.938C33.1775 31.8693 33.4159 31.7511 33.6247 31.5903C33.8334 31.4295 34.0085 31.2291 34.1398 31.0006C34.3156 30.6961 34.5686 30.4433 34.8732 30.2678C35.1778 30.0922 35.5233 30.0001 35.8748 30.0006C36.2264 30.0011 36.5716 30.0944 36.8757 30.2708C37.1798 30.4473 37.432 30.7008 37.6068 31.0058C37.7817 31.3108 37.8731 31.6565 37.8718 32.0081C37.8704 32.3597 37.7765 32.7047 37.5993 33.0084C37.4221 33.3121 37.1681 33.5637 36.8627 33.7378C36.5573 33.912 36.2114 34.0026 35.8598 34.0005C35.3294 34.0005 34.8207 34.2112 34.4456 34.5863C34.0705 34.9614 33.8598 35.4701 33.8598 36.0005C33.8598 36.5309 34.0705 37.0396 34.4456 37.4147C34.8207 37.7897 35.3294 38.0005 35.8598 38.0005C37.4511 38.0005 38.9772 37.3683 40.1024 36.2431C41.2276 35.1179 41.8597 33.5918 41.8597 32.0005C41.8597 30.4093 41.2276 28.8832 40.1024 27.758C38.9772 26.6328 37.4511 26.0006 35.8598 26.0006ZM16.1401 20.0007H18.1401C18.6705 20.0007 19.1792 19.79 19.5542 19.415C19.9293 19.0399 20.14 18.5312 20.14 18.0008C20.14 17.4703 19.9293 16.9616 19.5542 16.5866C19.1792 16.2115 18.6705 16.0008 18.1401 16.0008H16.1401C15.6097 16.0008 15.101 16.2115 14.7259 16.5866C14.3508 16.9616 14.1401 17.4703 14.1401 18.0008C14.1401 18.5312 14.3508 19.0399 14.7259 19.415C15.101 19.79 15.6097 20.0007 16.1401 20.0007Z"/>
</svg>