<svg width="48" height="48" viewBox="0 0 48 48" fill="none" xmlns="http://www.w3.org/2000/svg">
<path d="M14.5251 38.6091C14.1015 39.0675 13.5112 39.3313 12.8862 39.3313C12.2613 39.3313 11.671 39.0675 11.2474 38.6091L5.13636 31.9426C4.30999 31.0398 4.36554 29.6301 5.27525 28.8037C6.18496 27.9773 7.58771 28.0329 8.41409 28.9426L10.6641 31.394V10.4429C10.6641 9.21374 11.6571 8.2207 12.8862 8.2207C14.1154 8.2207 15.1084 9.21374 15.1084 10.4429V31.394L17.3584 28.9357C18.1848 28.0329 19.5945 27.9704 20.4972 28.7968C21.4 29.6232 21.4625 31.0329 20.6361 31.9356L14.5251 38.6022V38.6091ZM26.2194 39.3313C24.9902 39.3313 23.9972 38.3383 23.9972 37.1091C23.9972 35.88 24.9902 34.887 26.2194 34.887H28.4416C29.6707 34.887 30.6637 35.88 30.6637 37.1091C30.6637 38.3383 29.6707 39.3313 28.4416 39.3313H26.2194ZM26.2194 30.4426C24.9902 30.4426 23.9972 29.4495 23.9972 28.2204C23.9972 26.9912 24.9902 25.9982 26.2194 25.9982H32.8859C34.1151 25.9982 35.1081 26.9912 35.1081 28.2204C35.1081 29.4495 34.1151 30.4426 32.8859 30.4426H26.2194ZM26.2194 21.5538C24.9902 21.5538 23.9972 20.5608 23.9972 19.3316C23.9972 18.1025 24.9902 17.1095 26.2194 17.1095H37.3303C38.5595 17.1095 39.5525 18.1025 39.5525 19.3316C39.5525 20.5608 38.5595 21.5538 37.3303 21.5538H26.2194ZM26.2194 12.6651C24.9902 12.6651 23.9972 11.672 23.9972 10.4429C23.9972 9.21374 24.9902 8.2207 26.2194 8.2207H41.7747C43.0038 8.2207 43.9969 9.21374 43.9969 10.4429C43.9969 11.672 43.0038 12.6651 41.7747 12.6651H26.2194Z" />
</svg>
