<svg width="48" height="49" viewBox="0 0 48 49" fill="none" xmlns="http://www.w3.org/2000/svg">
<g id="uil:file-question-alt">
<path id="Vector" d="M26.1399 24.5016H16.1401C15.6097 24.5016 15.101 24.7124 14.7259 25.0874C14.3508 25.4625 14.1401 25.9712 14.1401 26.5016C14.1401 27.032 14.3508 27.5407 14.7259 27.9158C15.101 28.2909 15.6097 28.5016 16.1401 28.5016H26.1399C26.6704 28.5016 27.1791 28.2909 27.5541 27.9158C27.9292 27.5407 28.1399 27.032 28.1399 26.5016C28.1399 25.9712 27.9292 25.4625 27.5541 25.0874C27.1791 24.7124 26.6704 24.5016 26.1399 24.5016ZM28.1399 40.5014H12.1401C11.6097 40.5014 11.101 40.2907 10.726 39.9156C10.3509 39.5406 10.1402 39.0319 10.1402 38.5014V10.5019C10.1402 9.97144 10.3509 9.46274 10.726 9.08767C11.101 8.7126 11.6097 8.50189 12.1401 8.50189H22.14V14.5018C22.14 16.0931 22.7721 17.6192 23.8973 18.7444C25.0225 19.8696 26.5486 20.5017 28.1399 20.5017H34.1398V22.5017C34.1398 23.0321 34.3505 23.5408 34.7256 23.9159C35.1007 24.2909 35.6094 24.5016 36.1398 24.5016C36.6702 24.5016 37.1789 24.2909 37.554 23.9159C37.929 23.5408 38.1397 23.0321 38.1397 22.5017V18.5017C38.1484 18.4622 38.1484 18.4213 38.1397 18.3817C38.1228 18.1953 38.0755 18.0129 37.9997 17.8417V17.6617C37.9036 17.4561 37.7753 17.2671 37.6198 17.1018L25.6199 5.10194C25.4502 4.94248 25.2539 4.81388 25.0399 4.72195C25.0399 4.72195 24.9399 4.72195 24.8799 4.72195C24.6829 4.60791 24.4655 4.53319 24.24 4.50195H12.2401C10.6489 4.50195 9.12277 5.13408 7.99757 6.25929C6.87237 7.38449 6.24023 8.91059 6.24023 10.5019V38.5014C6.24023 40.0927 6.87237 41.6188 7.99757 42.744C9.12277 43.8692 10.6489 44.5013 12.2401 44.5013H28.2399C28.7703 44.5013 29.279 44.2906 29.6541 43.9156C30.0292 43.5405 30.2399 43.0318 30.2399 42.5014C30.2399 41.9709 30.0292 41.4622 29.6541 41.0872C29.279 40.7121 28.7703 40.5014 28.2399 40.5014H28.1399ZM26.1399 11.3218L31.2999 16.5018H28.1399C27.6095 16.5018 27.1008 16.2911 26.7257 15.916C26.3506 15.5409 26.1399 15.0322 26.1399 14.5018V11.3218ZM37.2798 41.0814C37.1847 40.9954 37.0845 40.9152 36.9798 40.8414C36.76 40.6985 36.516 40.5969 36.2598 40.5414C35.9385 40.4771 35.6063 40.4927 35.2924 40.5868C34.9786 40.681 34.6926 40.8508 34.4598 41.0814C34.2723 41.2673 34.1236 41.4885 34.022 41.7322C33.9205 41.9759 33.8682 42.2373 33.8682 42.5014C33.8682 42.7654 33.9205 43.0268 34.022 43.2705C34.1236 43.5142 34.2723 43.7354 34.4598 43.9213C34.8323 44.2908 35.3351 44.4991 35.8598 44.5013C36.189 44.503 36.5136 44.4233 36.8047 44.2694C37.0957 44.1155 37.3443 43.8921 37.5283 43.6191C37.7123 43.346 37.8261 43.0318 37.8595 42.7042C37.8929 42.3767 37.8449 42.0459 37.7198 41.7414C37.611 41.4983 37.4623 41.2752 37.2798 41.0814ZM26.1399 32.5015H16.1401C15.6097 32.5015 15.101 32.7122 14.7259 33.0873C14.3508 33.4624 14.1401 33.9711 14.1401 34.5015C14.1401 35.0319 14.3508 35.5406 14.7259 35.9157C15.101 36.2908 15.6097 36.5015 16.1401 36.5015H26.1399C26.6704 36.5015 27.1791 36.2908 27.5541 35.9157C27.9292 35.5406 28.1399 35.0319 28.1399 34.5015C28.1399 33.9711 27.9292 33.4624 27.5541 33.0873C27.1791 32.7122 26.6704 32.5015 26.1399 32.5015ZM35.8598 26.5016C34.8059 26.5009 33.7705 26.7778 32.8576 27.3045C31.9448 27.8311 31.1868 28.5889 30.6599 29.5016C30.5285 29.7301 30.4435 29.9822 30.4096 30.2435C30.3757 30.5049 30.3937 30.7704 30.4624 31.0248C30.5311 31.2792 30.6493 31.5176 30.8101 31.7264C30.971 31.9352 31.1714 32.1102 31.3998 32.2415C31.6283 32.3728 31.8805 32.4579 32.1418 32.4918C32.4032 32.5256 32.6687 32.5077 32.9231 32.439C33.1775 32.3703 33.4159 32.2521 33.6247 32.0913C33.8334 31.9304 34.0085 31.73 34.1398 31.5015C34.3156 31.1971 34.5686 30.9443 34.8732 30.7688C35.1778 30.5932 35.5233 30.5011 35.8748 30.5016C36.2264 30.5021 36.5716 30.5953 36.8757 30.7718C37.1798 30.9483 37.432 31.2018 37.6068 31.5068C37.7817 31.8118 37.8731 32.1575 37.8718 32.5091C37.8704 32.8607 37.7765 33.2057 37.5993 33.5094C37.4221 33.813 37.1681 34.0646 36.8627 34.2388C36.5573 34.413 36.2114 34.5036 35.8598 34.5015C35.3294 34.5015 34.8207 34.7122 34.4456 35.0873C34.0705 35.4623 33.8598 35.971 33.8598 36.5015C33.8598 37.0319 34.0705 37.5406 34.4456 37.9157C34.8207 38.2907 35.3294 38.5014 35.8598 38.5014C37.4511 38.5014 38.9772 37.8693 40.1024 36.7441C41.2276 35.6189 41.8597 34.0928 41.8597 32.5015C41.8597 30.9102 41.2276 29.3841 40.1024 28.2589C38.9772 27.1337 37.4511 26.5016 35.8598 26.5016ZM16.1401 20.5017H18.1401C18.6705 20.5017 19.1792 20.291 19.5542 19.9159C19.9293 19.5409 20.14 19.0322 20.14 18.5017C20.14 17.9713 19.9293 17.4626 19.5542 17.0875C19.1792 16.7125 18.6705 16.5018 18.1401 16.5018H16.1401C15.6097 16.5018 15.101 16.7125 14.7259 17.0875C14.3508 17.4626 14.1401 17.9713 14.1401 18.5017C14.1401 19.0322 14.3508 19.5409 14.7259 19.9159C15.101 20.291 15.6097 20.5017 16.1401 20.5017Z"/>
</g>
</svg>
