<svg xmlns="http://www.w3.org/2000/svg" width="48" height="49" viewBox="0 0 48 49" fill="none">
  <path d="M26.1399 24.5007H16.1401C15.6097 24.5007 15.101 24.7114 14.7259 25.0864C14.3508 25.4615 14.1401 25.9702 14.1401 26.5006C14.1401 27.0311 14.3508 27.5398 14.7259 27.9148C15.101 28.2899 15.6097 28.5006 16.1401 28.5006H26.1399C26.6704 28.5006 27.1791 28.2899 27.5541 27.9148C27.9292 27.5398 28.1399 27.0311 28.1399 26.5006C28.1399 25.9702 27.9292 25.4615 27.5541 25.0864C27.1791 24.7114 26.6704 24.5007 26.1399 24.5007ZM28.1399 40.5004H12.1401C11.6097 40.5004 11.101 40.2897 10.726 39.9146C10.3509 39.5396 10.1402 39.0309 10.1402 38.5005V10.5009C10.1402 9.97046 10.3509 9.46176 10.726 9.08669C11.101 8.71163 11.6097 8.50091 12.1401 8.50091H22.14V14.5008C22.14 16.0921 22.7721 17.6182 23.8973 18.7434C25.0225 19.8686 26.5486 20.5007 28.1399 20.5007H34.1398V22.5007C34.1398 23.0311 34.3505 23.5398 34.7256 23.9149C35.1007 24.29 35.6094 24.5007 36.1398 24.5007C36.6702 24.5007 37.1789 24.29 37.554 23.9149C37.929 23.5398 38.1397 23.0311 38.1397 22.5007V18.5008C38.1484 18.4612 38.1484 18.4203 38.1397 18.3808C38.1228 18.1943 38.0755 18.012 37.9997 17.8408V17.6608C37.9036 17.4551 37.7753 17.2661 37.6198 17.1008L25.6199 5.10097C25.4502 4.9415 25.2539 4.8129 25.0399 4.72097C25.0399 4.72097 24.9399 4.72097 24.8799 4.72097C24.6829 4.60693 24.4655 4.53222 24.24 4.50098H12.2401C10.6489 4.50098 9.12277 5.13311 7.99757 6.25831C6.87237 7.38351 6.24023 8.90961 6.24023 10.5009V38.5005C6.24023 40.0917 6.87237 41.6178 7.99757 42.743C9.12277 43.8682 10.6489 44.5004 12.2401 44.5004H28.2399C28.7703 44.5004 29.279 44.2896 29.6541 43.9146C30.0292 43.5395 30.2399 43.0308 30.2399 42.5004C30.2399 41.97 30.0292 41.4613 29.6541 41.0862C29.279 40.7111 28.7703 40.5004 28.2399 40.5004H28.1399ZM26.1399 11.3209L31.2999 16.5008H28.1399C27.6095 16.5008 27.1008 16.2901 26.7257 15.915C26.3506 15.5399 26.1399 15.0312 26.1399 14.5008V11.3209ZM37.2798 41.0804C37.1847 40.9944 37.0845 40.9143 36.9798 40.8404C36.76 40.6976 36.516 40.5959 36.2598 40.5404C35.9385 40.4761 35.6063 40.4917 35.2924 40.5858C34.9786 40.68 34.6926 40.8498 34.4598 41.0804C34.2723 41.2663 34.1236 41.4875 34.022 41.7312C33.9205 41.975 33.8682 42.2364 33.8682 42.5004C33.8682 42.7644 33.9205 43.0258 34.022 43.2695C34.1236 43.5132 34.2723 43.7344 34.4598 43.9204C34.8323 44.2898 35.3351 44.4981 35.8598 44.5004C36.189 44.502 36.5136 44.4223 36.8047 44.2684C37.0957 44.1145 37.3443 43.8911 37.5283 43.6181C37.7123 43.3451 37.8261 43.0308 37.8595 42.7033C37.8929 42.3757 37.8449 42.045 37.7198 41.7404C37.611 41.4973 37.4623 41.2743 37.2798 41.0804ZM26.1399 32.5005H16.1401C15.6097 32.5005 15.101 32.7113 14.7259 33.0863C14.3508 33.4614 14.1401 33.9701 14.1401 34.5005C14.1401 35.0309 14.3508 35.5396 14.7259 35.9147C15.101 36.2898 15.6097 36.5005 16.1401 36.5005H26.1399C26.6704 36.5005 27.1791 36.2898 27.5541 35.9147C27.9292 35.5396 28.1399 35.0309 28.1399 34.5005C28.1399 33.9701 27.9292 33.4614 27.5541 33.0863C27.1791 32.7113 26.6704 32.5005 26.1399 32.5005ZM35.8598 26.5006C34.8059 26.5 33.7705 26.7769 32.8576 27.3035C31.9448 27.8301 31.1868 28.5879 30.6599 29.5006C30.5285 29.7291 30.4435 29.9812 30.4096 30.2426C30.3757 30.5039 30.3937 30.7694 30.4624 31.0238C30.5311 31.2783 30.6493 31.5167 30.8101 31.7254C30.971 31.9342 31.1714 32.1092 31.3998 32.2405C31.6283 32.3719 31.8805 32.4569 32.1418 32.4908C32.4032 32.5247 32.6687 32.5067 32.9231 32.438C33.1775 32.3693 33.4159 32.2511 33.6247 32.0903C33.8334 31.9295 34.0085 31.7291 34.1398 31.5006C34.3156 31.1961 34.5686 30.9433 34.8732 30.7678C35.1778 30.5922 35.5233 30.5001 35.8748 30.5006C36.2264 30.5011 36.5716 30.5944 36.8757 30.7708C37.1798 30.9473 37.432 31.2008 37.6068 31.5058C37.7817 31.8108 37.8731 32.1565 37.8718 32.5081C37.8704 32.8597 37.7765 33.2047 37.5993 33.5084C37.4221 33.8121 37.1681 34.0637 36.8627 34.2378C36.5573 34.412 36.2114 34.5026 35.8598 34.5005C35.3294 34.5005 34.8207 34.7112 34.4456 35.0863C34.0705 35.4614 33.8598 35.9701 33.8598 36.5005C33.8598 37.0309 34.0705 37.5396 34.4456 37.9147C34.8207 38.2897 35.3294 38.5005 35.8598 38.5005C37.4511 38.5005 38.9772 37.8683 40.1024 36.7431C41.2276 35.6179 41.8597 34.0918 41.8597 32.5005C41.8597 30.9093 41.2276 29.3832 40.1024 28.258C38.9772 27.1328 37.4511 26.5006 35.8598 26.5006ZM16.1401 20.5007H18.1401C18.6705 20.5007 19.1792 20.29 19.5542 19.915C19.9293 19.5399 20.14 19.0312 20.14 18.5008C20.14 17.9703 19.9293 17.4616 19.5542 17.0866C19.1792 16.7115 18.6705 16.5008 18.1401 16.5008H16.1401C15.6097 16.5008 15.101 16.7115 14.7259 17.0866C14.3508 17.4616 14.1401 17.9703 14.1401 18.5008C14.1401 19.0312 14.3508 19.5399 14.7259 19.915C15.101 20.29 15.6097 20.5007 16.1401 20.5007Z" fill="url(#paint0_linear_1504_7038)"/>
  <defs>
    <linearGradient id="paint0_linear_1504_7038" x1="24.05" y1="44.5004" x2="24.05" y2="4.50098" gradientUnits="userSpaceOnUse">
      <stop stop-color="#3ED7CD"/>
      <stop offset="1" stop-color="#3ED7CD" stop-opacity="0.6"/>
    </linearGradient>
  </defs>
</svg>