<svg width="48" height="48" viewBox="0 0 48 48" fill="none" xmlns="http://www.w3.org/2000/svg">
<g clip-path="url(#clip0_4838_9030)">
<path d="M14.5271 38.6091C14.1035 39.0675 13.5132 39.3313 12.8882 39.3313C12.2632 39.3313 11.6729 39.0675 11.2493 38.6091L5.13832 31.9426C4.31194 31.0398 4.3675 29.6301 5.2772 28.8037C6.18691 27.9773 7.58967 28.0329 8.41604 28.9426L10.666 31.394V10.4429C10.666 9.21374 11.659 8.2207 12.8882 8.2207C14.1173 8.2207 15.1104 9.21374 15.1104 10.4429V31.394L17.3603 28.9357C18.1867 28.0329 19.5964 27.9704 20.4992 28.7968C21.402 29.6232 21.4645 31.0329 20.6381 31.9356L14.5271 38.6022V38.6091ZM26.2213 39.3313C24.9922 39.3313 23.9991 38.3383 23.9991 37.1091C23.9991 35.88 24.9922 34.887 26.2213 34.887H28.4435C29.6727 34.887 30.6657 35.88 30.6657 37.1091C30.6657 38.3383 29.6727 39.3313 28.4435 39.3313H26.2213ZM26.2213 30.4426C24.9922 30.4426 23.9991 29.4495 23.9991 28.2204C23.9991 26.9912 24.9922 25.9982 26.2213 25.9982H32.8879C34.117 25.9982 35.1101 26.9912 35.1101 28.2204C35.1101 29.4495 34.117 30.4426 32.8879 30.4426H26.2213ZM26.2213 21.5538C24.9922 21.5538 23.9991 20.5608 23.9991 19.3316C23.9991 18.1025 24.9922 17.1095 26.2213 17.1095H37.3323C38.5614 17.1095 39.5544 18.1025 39.5544 19.3316C39.5544 20.5608 38.5614 21.5538 37.3323 21.5538H26.2213ZM26.2213 12.6651C24.9922 12.6651 23.9991 11.672 23.9991 10.4429C23.9991 9.21374 24.9922 8.2207 26.2213 8.2207H41.7766C43.0058 8.2207 43.9988 9.21374 43.9988 10.4429C43.9988 11.672 43.0058 12.6651 41.7766 12.6651H26.2213Z" fill="url(#paint0_linear_1504_7038)"/>
</g>
<defs>
<clipPath id="clip0_4838_9030">
<rect width="39.9994" height="35.555" fill="white" transform="translate(4 6.00293)"/>
</clipPath>
<linearGradient id="paint0_linear_1504_7038" x1="24.05" y1="44.5004" x2="24.05" y2="4.50098" gradientUnits="userSpaceOnUse">
<stop stop-color="#3ED7CD"/>
<stop offset="1" stop-color="#3ED7CD" stop-opacity="0.6"/>
</linearGradient>
</defs>
</svg>