<svg width="40" height="37" viewBox="0 0 40 37" fill="none" xmlns="http://www.w3.org/2000/svg">
<g id="fa6-solid:arrow-down-wide-short">
<path id="Vector" d="M10.5271 33.1072C10.1035 33.5655 9.51319 33.8294 8.8882 33.8294C8.26321 33.8294 7.67294 33.5655 7.24933 33.1072L1.13832 26.4406C0.311941 25.5378 0.367495 24.1281 1.2772 23.3018C2.18691 22.4754 3.58967 22.5309 4.41604 23.4407L6.66601 25.892V4.94094C6.66601 3.71179 7.65905 2.71875 8.8882 2.71875C10.1173 2.71875 11.1104 3.71179 11.1104 4.94094V25.892L13.3603 23.4337C14.1867 22.5309 15.5964 22.4684 16.4992 23.2948C17.402 24.1212 17.4645 25.5309 16.6381 26.4337L10.5271 33.1002V33.1072ZM22.2213 33.8294C20.9922 33.8294 19.9991 32.8363 19.9991 31.6072C19.9991 30.378 20.9922 29.385 22.2213 29.385H24.4435C25.6727 29.385 26.6657 30.378 26.6657 31.6072C26.6657 32.8363 25.6727 33.8294 24.4435 33.8294H22.2213ZM22.2213 24.9406C20.9922 24.9406 19.9991 23.9476 19.9991 22.7184C19.9991 21.4893 20.9922 20.4963 22.2213 20.4963H28.8879C30.117 20.4963 31.1101 21.4893 31.1101 22.7184C31.1101 23.9476 30.117 24.9406 28.8879 24.9406H22.2213ZM22.2213 16.0519C20.9922 16.0519 19.9991 15.0588 19.9991 13.8297C19.9991 12.6005 20.9922 11.6075 22.2213 11.6075H33.3323C34.5614 11.6075 35.5544 12.6005 35.5544 13.8297C35.5544 15.0588 34.5614 16.0519 33.3323 16.0519H22.2213ZM22.2213 7.16313C20.9922 7.16313 19.9991 6.17009 19.9991 4.94094C19.9991 3.71179 20.9922 2.71875 22.2213 2.71875H37.7766C39.0058 2.71875 39.9988 3.71179 39.9988 4.94094C39.9988 6.17009 39.0058 7.16313 37.7766 7.16313H22.2213Z"/>
</g>
</svg>
