<svg width="11" height="11" viewBox="0 0 11 11" fill="none" xmlns="http://www.w3.org/2000/svg">
<path d="M9.4987 6.16536H6.16536V9.4987C6.16536 9.67551 6.09513 9.84508 5.9701 9.9701C5.84508 10.0951 5.67551 10.1654 5.4987 10.1654C5.32189 10.1654 5.15232 10.0951 5.02729 9.9701C4.90227 9.84508 4.83203 9.67551 4.83203 9.4987V6.16536H1.4987C1.32189 6.16536 1.15232 6.09513 1.02729 5.9701C0.902269 5.84508 0.832031 5.67551 0.832031 5.4987C0.832031 5.32189 0.902269 5.15232 1.02729 5.02729C1.15232 4.90227 1.32189 4.83203 1.4987 4.83203H4.83203V1.4987C4.83203 1.32189 4.90227 1.15232 5.02729 1.02729C5.15232 0.902269 5.32189 0.832031 5.4987 0.832031C5.67551 0.832031 5.84508 0.902269 5.9701 1.02729C6.09513 1.15232 6.16536 1.32189 6.16536 1.4987V4.83203H9.4987C9.67551 4.83203 9.84508 4.90227 9.9701 5.02729C10.0951 5.15232 10.1654 5.32189 10.1654 5.4987C10.1654 5.67551 10.0951 5.84508 9.9701 5.9701C9.84508 6.09513 9.67551 6.16536 9.4987 6.16536Z" fill="#E0E0E0"/>
</svg>
