<svg width="160" height="140" viewBox="0 0 160 140" fill="none" xmlns="http://www.w3.org/2000/svg">
<g filter="url(#filter0_d_643_3579)">
<path d="M54.9326 69.6439C59.7704 65.9679 64.4147 65.7734 69.059 69.6438" stroke="#3ED7CD" stroke-width="3.09618"/>
<circle cx="102.537" cy="66.9351" r="1.93512" fill="#3ED7CD"/>
<path d="M55.4471 90.5776L49.247 82.2875L51.871 80.453L58.0015 88.6734L55.4471 90.5776ZM50.501 88.2322C49.3089 88.2322 48.202 88.0232 47.1803 87.6052C46.174 87.1873 45.2994 86.6067 44.5563 85.8636C43.8287 85.1051 43.2559 84.2149 42.8379 83.1932C42.4354 82.1714 42.2341 81.0491 42.2341 79.8261C42.2341 78.6186 42.4354 77.5039 42.8379 76.4822C43.2559 75.4605 43.8287 74.5703 44.5563 73.8117C45.2994 73.0532 46.174 72.4649 47.1803 72.0469C48.202 71.6289 49.3089 71.4199 50.501 71.4199C51.693 71.4199 52.7844 71.6289 53.7752 72.0469C54.7814 72.4649 55.6561 73.0532 56.3992 73.8117C57.1423 74.5703 57.7151 75.4605 58.1176 76.4822C58.5356 77.5039 58.7446 78.6263 58.7446 79.8493C58.7446 81.0413 58.5356 82.1482 58.1176 83.17C57.7151 84.1917 57.1423 85.0818 56.3992 85.8404C55.6561 86.599 54.7814 87.1873 53.7752 87.6052C52.7844 88.0232 51.693 88.2322 50.501 88.2322ZM50.501 84.9348C51.1821 84.9348 51.8091 84.8109 52.3819 84.5632C52.9547 84.3001 53.4501 83.944 53.8681 83.4951C54.3015 83.0306 54.6344 82.4888 54.8666 81.8696C55.0988 81.2503 55.2149 80.5769 55.2149 79.8493C55.2149 79.1062 55.0988 78.425 54.8666 77.8058C54.6344 77.1866 54.3015 76.6447 53.8681 76.1803C53.4501 75.7159 52.9547 75.3598 52.3819 75.1121C51.8091 74.849 51.1821 74.7174 50.501 74.7174C49.8198 74.7174 49.1851 74.849 48.5968 75.1121C48.024 75.3598 47.5209 75.7159 47.0874 76.1803C46.6694 76.6293 46.3443 77.1711 46.1121 77.8058C45.8799 78.425 45.7638 79.1062 45.7638 79.8493C45.7638 80.8246 45.9651 81.6993 46.3676 82.4733C46.7855 83.2319 47.3506 83.8356 48.0627 84.2846C48.7748 84.718 49.5876 84.9348 50.501 84.9348ZM69.7154 88V72.6042H73.0128V88H69.7154ZM67.4165 78.665V75.7159H75.544V78.665H67.4165ZM81.8963 88.2322C81.0139 88.2322 80.2476 88.0387 79.5974 87.6517C78.9472 87.2492 78.444 86.6841 78.088 85.9565C77.7474 85.2134 77.5771 84.331 77.5771 83.3093V75.7159H80.8745V82.7055C80.8745 83.5725 81.0758 84.2536 81.4783 84.749C81.8963 85.2289 82.4691 85.4689 83.1967 85.4689C83.5682 85.4689 83.9011 85.4147 84.1952 85.3063C84.5048 85.1825 84.768 85.0122 84.9847 84.7954C85.2015 84.5787 85.3717 84.3233 85.4956 84.0291C85.6194 83.735 85.6814 83.4099 85.6814 83.0538V75.7159H88.9788V88H85.8439L85.751 85.4689L86.3316 85.1902C86.1613 85.763 85.8517 86.2816 85.4027 86.746C84.9692 87.2105 84.4506 87.5743 83.8469 87.8375C83.2431 88.1006 82.5929 88.2322 81.8963 88.2322ZM97.1268 88.2322C96.0586 88.2322 95.091 87.9613 94.2241 87.4195C93.3727 86.8776 92.6992 86.1268 92.2039 85.167C91.7239 84.1917 91.484 83.0925 91.484 81.8696C91.484 80.6311 91.7239 79.5319 92.2039 78.5721C92.6992 77.6123 93.3727 76.8537 94.2241 76.2964C95.0756 75.7391 96.0431 75.4605 97.1268 75.4605C97.6996 75.4605 98.2492 75.5533 98.7755 75.7391C99.3173 75.9094 99.7972 76.1494 100.215 76.459C100.633 76.7686 100.974 77.1169 101.237 77.5039C101.5 77.8755 101.655 78.2625 101.701 78.665L100.865 78.8276V70.8162H104.14V88H101.028L100.889 85.167L101.539 85.2599C101.523 85.6314 101.392 85.9952 101.144 86.3513C100.896 86.7073 100.564 87.0324 100.146 87.3266C99.7431 87.6052 99.2786 87.8297 98.7523 88C98.2414 88.1548 97.6996 88.2322 97.1268 88.2322ZM97.8466 85.4921C98.4814 85.4921 99.0232 85.3373 99.4721 85.0277C99.9366 84.718 100.3 84.2923 100.564 83.7505C100.827 83.2087 100.958 82.5817 100.958 81.8696C100.958 81.142 100.827 80.5072 100.564 79.9654C100.3 79.4081 99.9366 78.9824 99.4721 78.6882C99.0232 78.3786 98.4814 78.2238 97.8466 78.2238C97.2429 78.2238 96.7088 78.3786 96.2444 78.6882C95.7799 78.9824 95.4161 79.4081 95.153 79.9654C94.9053 80.5072 94.7814 81.142 94.7814 81.8696C94.7814 82.5817 94.9053 83.2087 95.153 83.7505C95.4161 84.2923 95.7799 84.718 96.2444 85.0277C96.7088 85.3373 97.2429 85.4921 97.8466 85.4921ZM109.073 93.3409L111.767 87.0479L111.813 88.9753L105.799 75.7159H109.538L112.556 82.8449C112.665 83.0925 112.781 83.3944 112.905 83.7505C113.029 84.1065 113.122 84.4471 113.183 84.7722L112.626 85.0044C112.735 84.7413 112.843 84.4394 112.951 84.0988C113.075 83.7582 113.199 83.3944 113.323 83.0074L115.9 75.7159H119.685L114.53 88L112.417 93.3409H109.073Z" fill="#3ED7CD"/>
</g>
<g filter="url(#filter1_d_643_3579)">
<path d="M127.776 116.297C133.498 108.765 137.359 99.9869 139.042 90.6788C140.726 81.3707 140.185 71.7965 137.463 62.7373C134.742 53.6781 129.917 45.3908 123.382 38.5515C116.848 31.7122 108.789 26.5147 99.8631 23.3833C90.9374 20.2518 81.3977 19.275 72.0226 20.5327C62.6474 21.7903 53.7025 25.2468 45.9176 30.6199C38.1327 35.9931 31.7286 43.1307 27.2277 51.4504C22.7268 59.7701 20.2567 69.036 20.0189 78.4922L24.8174 78.6128C25.0361 69.9131 27.3086 61.3885 31.4494 53.7344C35.5903 46.0803 41.4821 39.5136 48.6442 34.5703C55.8063 29.627 64.0356 26.4471 72.6608 25.2901C81.2859 24.133 90.0624 25.0316 98.2741 27.9126C106.486 30.7935 113.9 35.5752 119.912 41.8673C125.923 48.1595 130.362 55.7839 132.866 64.1183C135.37 72.4527 135.868 81.2611 134.319 89.8245C132.77 98.388 129.218 106.464 123.954 113.393L127.776 116.297Z" fill="#3ED7CD"/>
</g>
<defs>
<filter id="filter0_d_643_3579" x="28.6153" y="52.6153" width="103.723" height="53.7958" filterUnits="userSpaceOnUse" color-interpolation-filters="sRGB">
<feFlood flood-opacity="0" result="BackgroundImageFix"/>
<feColorMatrix in="SourceAlpha" type="matrix" values="0 0 0 0 0 0 0 0 0 0 0 0 0 0 0 0 0 0 127 0" result="hardAlpha"/>
<feOffset/>
<feGaussianBlur stdDeviation="6.19237"/>
<feComposite in2="hardAlpha" operator="out"/>
<feColorMatrix type="matrix" values="0 0 0 0 0.211765 0 0 0 0 0.741176 0 0 0 0 0.705882 0 0 0 0.24 0"/>
<feBlend mode="normal" in2="BackgroundImageFix" result="effect1_dropShadow_643_3579"/>
<feBlend mode="normal" in="SourceGraphic" in2="effect1_dropShadow_643_3579" result="shape"/>
</filter>
<filter id="filter1_d_643_3579" x="0.0185547" y="0" width="159.981" height="136.297" filterUnits="userSpaceOnUse" color-interpolation-filters="sRGB">
<feFlood flood-opacity="0" result="BackgroundImageFix"/>
<feColorMatrix in="SourceAlpha" type="matrix" values="0 0 0 0 0 0 0 0 0 0 0 0 0 0 0 0 0 0 127 0" result="hardAlpha"/>
<feOffset/>
<feGaussianBlur stdDeviation="10"/>
<feComposite in2="hardAlpha" operator="out"/>
<feColorMatrix type="matrix" values="0 0 0 0 0.211765 0 0 0 0 0.741176 0 0 0 0 0.705882 0 0 0 0.28 0"/>
<feBlend mode="normal" in2="BackgroundImageFix" result="effect1_dropShadow_643_3579"/>
<feBlend mode="normal" in="SourceGraphic" in2="effect1_dropShadow_643_3579" result="shape"/>
</filter>
</defs>
</svg>
