<svg width="68" height="68" viewBox="0 0 68 68" fill="none" xmlns="http://www.w3.org/2000/svg">
<g id="fluent:code-text-edit-20-regular">
<path id="Vector" d="M6.19997 10C5.74911 10 5.31672 10.1791 4.99791 10.4979C4.6791 10.8167 4.5 11.2491 4.5 11.7C4.5 12.1508 4.6791 12.5832 4.99791 12.902C5.31672 13.2208 5.74911 13.3999 6.19997 13.3999H24.8997C25.3506 13.3999 25.783 13.2208 26.1018 12.902C26.4206 12.5832 26.5997 12.1508 26.5997 11.7C26.5997 11.2491 26.4206 10.8167 26.1018 10.4979C25.783 10.1791 25.3506 10 24.8997 10H6.19997ZM16.3998 20.1998C15.949 20.1998 15.5166 20.379 15.1978 20.6978C14.879 21.0166 14.6998 21.449 14.6998 21.8998C14.6998 22.3507 14.879 22.7831 15.1978 23.1019C15.5166 23.4207 15.949 23.5998 16.3998 23.5998H33.3996C33.8504 23.5998 34.2828 23.4207 34.6016 23.1019C34.9204 22.7831 35.0995 22.3507 35.0995 21.8998C35.0995 21.449 34.9204 21.0166 34.6016 20.6978C34.2828 20.379 33.8504 20.1998 33.3996 20.1998H16.3998ZM11.2999 32.0997C11.2999 31.6488 11.479 31.2164 11.7978 30.8976C12.1166 30.5788 12.549 30.3997 12.9999 30.3997H45.109L41.709 33.7997H12.9999C12.549 33.7997 12.1166 33.6205 11.7978 33.3017C11.479 32.9829 11.2999 32.5505 11.2999 32.0997ZM32.6312 42.8775L34.9092 40.5995H6.19997C5.74911 40.5995 5.31672 40.7787 4.99791 41.0975C4.6791 41.4163 4.5 41.8487 4.5 42.2995C4.5 42.7504 4.6791 43.1828 4.99791 43.5016C5.31672 43.8204 5.74911 43.9995 6.19997 43.9995H31.652C31.9525 43.6036 32.2796 43.2288 32.6312 42.8775ZM40.1995 21.8998C40.1995 21.449 40.3786 21.0166 40.6974 20.6978C41.0162 20.379 41.4486 20.1998 41.8994 20.1998H53.7993C54.2501 20.1998 54.6825 20.379 55.0013 20.6978C55.3201 21.0166 55.4992 21.449 55.4992 21.8998C55.4992 22.3507 55.3201 22.7831 55.0013 23.1019C54.6825 23.4207 54.2501 23.5998 53.7993 23.5998H41.8994C41.4486 23.5998 41.0162 23.4207 40.6974 23.1019C40.3786 22.7831 40.1995 22.3507 40.1995 21.8998ZM33.3996 10C32.9487 10 32.5163 10.1791 32.1975 10.4979C31.8787 10.8167 31.6996 11.2491 31.6996 11.7C31.6996 12.1508 31.8787 12.5832 32.1975 12.902C32.5163 13.2208 32.9487 13.3999 33.3996 13.3999H55.4992C55.9501 13.3999 56.3825 13.2208 56.7013 12.902C57.0201 12.5832 57.1992 12.1508 57.1992 11.7C57.1992 11.2491 57.0201 10.8167 56.7013 10.4979C56.3825 10.1791 55.9501 10 55.4992 10H33.3996ZM35.0315 45.2813L51.4533 28.8595C52.6463 27.6674 54.264 26.9981 55.9504 26.9987C57.6369 26.9994 59.2541 27.6699 60.4462 28.8629C61.6383 30.0559 62.3076 31.6736 62.307 33.3601C62.3063 35.0465 61.6358 36.6637 60.4428 37.8558L44.021 54.2741C43.0644 55.2312 41.8657 55.9105 40.5531 56.2393L35.4599 57.5109C34.9535 57.6371 34.423 57.6302 33.9201 57.4908C33.4171 57.3514 32.9588 57.0843 32.5895 56.7154C32.2203 56.3465 31.9528 55.8884 31.8129 55.3856C31.6731 54.8828 31.6657 54.3523 31.7914 53.8458L33.0664 48.7526C33.3925 47.4389 34.0721 46.2395 35.0315 45.2847V45.2813Z" fill="#9E9E9E"/>
</g>
</svg>
