<svg width="68" height="69" viewBox="0 0 68 69" fill="none" xmlns="http://www.w3.org/2000/svg">
<path fill-rule="evenodd" clip-rule="evenodd" d="M12.041 14.6666C12.041 12.6001 12.8619 10.6183 14.3231 9.1571C15.7843 7.6959 17.7661 6.875 19.8326 6.875H42.4622C43.2492 6.87545 44.0249 7.06327 44.725 7.42293C45.4251 7.78259 46.0295 8.30375 46.4883 8.94331L55.0278 20.8347C55.6313 21.679 55.9572 22.6905 55.9572 23.7246V54.3328C55.9572 56.3992 55.1363 58.3811 53.6751 59.8423C52.2139 61.3035 50.232 62.1244 48.1656 62.1244H19.8326C17.7661 62.1244 15.7843 61.3035 14.3231 59.8423C12.8619 58.3811 12.041 56.3992 12.041 54.3328V14.6666ZM19.8326 11.125C17.8776 11.125 16.291 12.7116 16.291 14.6666V54.3328C16.291 56.2878 17.8776 57.8744 19.8326 57.8744H48.1656C50.1206 57.8744 51.7072 56.2878 51.7072 54.3328V25.7079H42.499C41.9354 25.7079 41.3949 25.4841 40.9964 25.0856C40.5979 24.687 40.374 24.1465 40.374 23.583V11.125H19.8326Z" fill="#9E9E9E"/>
<path d="M42.7421 37.9524C42.5678 38.1706 42.3521 38.3523 42.1074 38.4871C41.8627 38.6219 41.5939 38.7071 41.3163 38.7379C41.0387 38.7687 40.7577 38.7444 40.4894 38.6665C40.2212 38.5886 39.9709 38.4586 39.753 38.2839L36.1264 35.377V45.1235C36.1264 45.6871 35.9025 46.2276 35.504 46.6261C35.1055 47.0246 34.565 47.2485 34.0014 47.2485C33.4378 47.2485 32.8973 47.0246 32.4988 46.6261C32.1003 46.2276 31.8764 45.6871 31.8764 45.1235V35.377L28.2441 38.2839C27.8038 38.636 27.2416 38.7987 26.6813 38.7362C26.121 38.6738 25.6085 38.3914 25.2564 37.951C24.9044 37.5107 24.7417 36.9485 24.8041 36.3882C24.8665 35.8279 25.149 35.3153 25.5893 34.9633L32.6641 29.3024C33.0372 29.0008 33.5018 28.8349 33.9816 28.832H34.0042C34.5142 28.832 34.9789 29.0134 35.3444 29.3137L42.4106 34.9633C42.6288 35.1377 42.8105 35.3534 42.9453 35.598C43.0801 35.8427 43.1653 36.1115 43.1961 36.3891C43.2269 36.6668 43.2027 36.9477 43.1248 37.216C43.0469 37.4842 42.9168 37.7345 42.7421 37.9524Z" fill="#9E9E9E"/>
</svg>
