<svg xmlns="http://www.w3.org/2000/svg" width="20" height="20" viewBox="0 0 20 20" fill="none">
  <path d="M17.7043 9.62111H16.5278V16.061H3.68865V5.54421H10.1082V4.24609H3.68865C3.52479 4.25123 3.36363 4.28915 3.21467 4.35762C3.06571 4.42608 2.93198 4.5237 2.82137 4.6447C2.71077 4.7657 2.62553 4.90765 2.57069 5.06214C2.51585 5.21664 2.49253 5.38055 2.50209 5.54421V16.061C2.49667 16.2222 2.52308 16.3828 2.57979 16.5338C2.63651 16.6847 2.72242 16.823 2.83262 16.9408C2.94282 17.0585 3.07514 17.1534 3.22203 17.2199C3.36891 17.2865 3.52747 17.3234 3.68865 17.3287H16.5278C16.689 17.3234 16.8476 17.2865 16.9945 17.2199C17.1413 17.1534 17.2737 17.0585 17.3839 16.9408C17.4941 16.823 17.58 16.6847 17.6367 16.5338C17.6934 16.3828 17.7198 16.2222 17.7144 16.061L17.7043 9.62111Z" fill="#9E9E9E"/>
  <path d="M12.712 5.12904L8.31056 9.54061L7.86433 9.98684L7.7832 10.068L6.24168 13.2727C6.13826 13.4784 6.10231 13.7116 6.13896 13.9389C6.1756 14.1663 6.28297 14.3763 6.4458 14.5391C6.60864 14.7019 6.81865 14.8093 7.046 14.8459C7.27334 14.8826 7.50646 14.8466 7.71221 14.7432L10.8967 13.1916L11.4342 12.6541L11.8702 12.218L16.2717 7.79626L16.728 7.35004L16.9816 7.0965C17.3953 6.68201 17.6276 6.12032 17.6276 5.5347C17.6276 4.94909 17.3953 4.3874 16.9816 3.9729C16.569 3.56336 16.0112 3.33367 15.4299 3.33399C14.8455 3.3332 14.2844 3.56276 13.8681 3.9729L13.1582 4.67267L12.7018 5.1189L12.712 5.12904ZM7.59051 13.3741L8.78721 10.9097L10.0549 12.1876L7.59051 13.3741ZM9.61882 9.96655L13.574 6.00121L14.8924 7.32975L10.9778 11.3458L9.61882 9.96655ZM15.3792 4.5814C15.5018 4.58098 15.6232 4.60498 15.7364 4.65199C15.8495 4.69901 15.9522 4.76809 16.0384 4.85522C16.2137 5.03188 16.312 5.27064 16.312 5.51949C16.312 5.76834 16.2137 6.0071 16.0384 6.18376L15.7849 6.42716L14.4665 5.10876L14.72 4.85522C14.8115 4.76509 14.9214 4.69578 15.0422 4.65202C15.163 4.60826 15.2918 4.59109 15.4198 4.60168L15.3792 4.5814Z" fill="#9E9E9E"/>
</svg>