<svg xmlns="http://www.w3.org/2000/svg" width="20" height="20" viewBox="0 0 20 20" fill="none">
  <path d="M3.33203 5.83336H16.6655M4.16537 5.83336L4.99871 15.8334C4.99871 16.2755 5.17431 16.6994 5.48687 17.012C5.79943 17.3245 6.22336 17.5001 6.66539 17.5001H13.3321C13.7741 17.5001 14.1981 17.3245 14.5106 17.012C14.8232 16.6994 14.9988 16.2755 14.9988 15.8334L15.8321 5.83336M7.49873 5.83336V3.33334C7.49873 3.11232 7.58653 2.90036 7.74281 2.74408C7.89909 2.5878 8.11105 2.5 8.33207 2.5H11.6654C11.8864 2.5 12.0984 2.5878 12.2547 2.74408C12.411 2.90036 12.4988 3.11232 12.4988 3.33334V5.83336M8.33207 10.0001L11.6654 13.3334M11.6654 10.0001L8.33207 13.3334" stroke="#9E9E9E" stroke-width="1.5" stroke-linecap="round" stroke-linejoin="round"/>
</svg>