<svg xmlns="http://www.w3.org/2000/svg" width="20" height="20" viewBox="0 0 20 20" fill="none">
  <path d="M15.6249 8.97435L12.2518 7.74771L11.0251 4.37459C10.9486 4.16408 10.8092 3.98222 10.6257 3.8537C10.4423 3.72519 10.2237 3.65625 9.99974 3.65625C9.77576 3.65625 9.5572 3.72519 9.37376 3.8537C9.19031 3.98222 9.05086 4.16408 8.97435 4.37459L7.74771 7.74771L4.37459 8.97435C4.16408 9.05086 3.98222 9.19031 3.8537 9.37376C3.72519 9.5572 3.65625 9.77576 3.65625 9.99974C3.65625 10.2237 3.72519 10.4423 3.8537 10.6257C3.98222 10.8092 4.16408 10.9486 4.37459 11.0251L7.74771 12.2518L8.97435 15.6249C9.05086 15.8354 9.19031 16.0173 9.37376 16.1458C9.5572 16.2743 9.77576 16.3432 9.99974 16.3432C10.2237 16.3432 10.4423 16.2743 10.6257 16.1458C10.8092 16.0173 10.9486 15.8354 11.0251 15.6249L12.2518 12.2518L15.6249 11.0251C15.8354 10.9486 16.0173 10.8092 16.1458 10.6257C16.2743 10.4423 16.3432 10.2237 16.3432 9.99974C16.3432 9.77576 16.2743 9.5572 16.1458 9.37376C16.0173 9.19031 15.8354 9.05086 15.6249 8.97435ZM11.7065 11.0525C11.5565 11.1069 11.4203 11.1935 11.3074 11.3064C11.1946 11.4192 11.1079 11.5554 11.0536 11.7054L9.99974 14.6039L8.94592 11.7054C8.89154 11.5554 8.80487 11.4192 8.69204 11.3064C8.57921 11.1935 8.44297 11.1069 8.29295 11.0525L5.39451 9.99974L8.29295 8.94592C8.44297 8.89154 8.57921 8.80487 8.69204 8.69204C8.80487 8.57921 8.89154 8.44297 8.94592 8.29295L9.99974 5.39451L11.0536 8.29295C11.1079 8.44297 11.1946 8.57921 11.3074 8.69204C11.4203 8.80487 11.5565 8.89154 11.7065 8.94592L14.605 9.99974L11.7065 11.0525Z" fill="white"/>
  <path d="M16.6562 1.23438C16.6562 1.17221 16.6316 1.1126 16.5876 1.06865C16.5436 1.02469 16.484 1 16.4219 1C16.3597 1 16.3001 1.02469 16.2561 1.06865C16.2122 1.1126 16.1875 1.17221 16.1875 1.23438V2.85625L15.3722 2.04062C15.3506 2.01825 15.3247 2.00041 15.2961 1.98814C15.2675 1.97587 15.2367 1.96942 15.2056 1.96916C15.1745 1.96891 15.1436 1.97485 15.1148 1.98665C15.086 1.99845 15.0599 2.01586 15.0379 2.03788C15.0159 2.0599 14.9985 2.08607 14.9867 2.11488C14.9749 2.14369 14.969 2.17456 14.9693 2.20567C14.9696 2.23679 14.9761 2.26755 14.9884 2.29614C15.0007 2.32472 15.0185 2.35058 15.0409 2.37219L15.8559 3.1875H14.2344C14.1722 3.1875 14.1126 3.21219 14.0686 3.25615C14.0247 3.3001 14 3.35971 14 3.42188C14 3.48404 14.0247 3.54365 14.0686 3.5876C14.1126 3.63156 14.1722 3.65625 14.2344 3.65625H15.8562L15.0406 4.47156C15.0182 4.49319 15.0004 4.51906 14.9881 4.54766C14.9759 4.57626 14.9694 4.60702 14.9692 4.63814C14.9689 4.66926 14.9749 4.70012 14.9866 4.72892C14.9984 4.75772 15.0159 4.78388 15.0379 4.80587C15.0599 4.82787 15.0861 4.84526 15.1149 4.85703C15.1437 4.8688 15.1746 4.87472 15.2057 4.87443C15.2368 4.87415 15.2675 4.86767 15.2961 4.85537C15.3247 4.84307 15.3506 4.82521 15.3722 4.80281L16.1875 3.98781V5.60938C16.1875 5.67154 16.2122 5.73115 16.2561 5.7751C16.3001 5.81906 16.3597 5.84375 16.4219 5.84375C16.484 5.84375 16.5436 5.81906 16.5876 5.7751C16.6316 5.73115 16.6562 5.67154 16.6562 5.60938V3.9875L17.4716 4.80312C17.4932 4.8255 17.5191 4.84334 17.5477 4.85561C17.5763 4.86788 17.607 4.87433 17.6381 4.87459C17.6693 4.87484 17.7001 4.8689 17.7289 4.8571C17.7577 4.8453 17.7839 4.82789 17.8059 4.80587C17.8279 4.78385 17.8453 4.75768 17.857 4.72887C17.8688 4.70006 17.8747 4.66919 17.8744 4.63807C17.8741 4.60696 17.8677 4.5762 17.8554 4.54761C17.8431 4.51903 17.8252 4.49317 17.8028 4.47156L16.9878 3.65625H18.6094C18.6715 3.65625 18.7311 3.63156 18.7751 3.5876C18.8191 3.54365 18.8438 3.48404 18.8438 3.42188C18.8438 3.35971 18.8191 3.3001 18.7751 3.25615C18.7311 3.21219 18.6715 3.1875 18.6094 3.1875H16.9875L17.8031 2.37219C17.8458 2.32796 17.8694 2.26875 17.8688 2.2073C17.8683 2.14584 17.8436 2.08707 17.8001 2.04364C17.7566 2.0002 17.6978 1.97558 17.6364 1.97508C17.5749 1.97457 17.5157 1.99822 17.4716 2.04094L16.6562 2.85594V1.23438Z" fill="white"/>
  <path d="M4.125 14.1875C4.125 14.1378 4.10525 14.0901 4.07008 14.0549C4.03492 14.0198 3.98723 14 3.9375 14C3.88777 14 3.84008 14.0198 3.80492 14.0549C3.76975 14.0901 3.75 14.1378 3.75 14.1875V15.485L3.09775 14.8325C3.08045 14.8146 3.05975 14.8003 3.03687 14.7905C3.01399 14.7807 2.98938 14.7755 2.96449 14.7753C2.93959 14.7751 2.9149 14.7799 2.89186 14.7893C2.86883 14.7988 2.8479 14.8127 2.8303 14.8303C2.8127 14.8479 2.79879 14.8689 2.78937 14.8919C2.77996 14.915 2.77523 14.9396 2.77545 14.9645C2.77568 14.9894 2.78087 15.014 2.7907 15.0369C2.80054 15.0598 2.81483 15.0805 2.83275 15.0977L3.48475 15.75H2.1875C2.13777 15.75 2.09008 15.7698 2.05492 15.8049C2.01975 15.8401 2 15.8878 2 15.9375C2 15.9872 2.01975 16.0349 2.05492 16.0701C2.09008 16.1052 2.13777 16.125 2.1875 16.125H3.485L2.8325 16.7773C2.8146 16.7946 2.80033 16.8153 2.79051 16.8381C2.78069 16.861 2.77553 16.8856 2.77533 16.9105C2.77512 16.9354 2.77988 16.9601 2.78932 16.9831C2.79876 17.0062 2.81269 17.0271 2.8303 17.0447C2.84792 17.0623 2.86886 17.0762 2.8919 17.0856C2.91495 17.095 2.93964 17.0998 2.96454 17.0995C2.98944 17.0993 3.01404 17.0941 3.03691 17.0843C3.05978 17.0745 3.08046 17.0602 3.09775 17.0422L3.75 16.3903V17.6875C3.75 17.7372 3.76975 17.7849 3.80492 17.8201C3.84008 17.8552 3.88777 17.875 3.9375 17.875C3.98723 17.875 4.03492 17.8552 4.07008 17.8201C4.10525 17.7849 4.125 17.7372 4.125 17.6875V16.39L4.77725 17.0425C4.79455 17.0604 4.81525 17.0747 4.83813 17.0845C4.86101 17.0943 4.88562 17.0995 4.91051 17.0997C4.93541 17.0999 4.9601 17.0951 4.98314 17.0857C5.00617 17.0762 5.0271 17.0623 5.0447 17.0447C5.0623 17.0271 5.07621 17.0061 5.08563 16.9831C5.09504 16.96 5.09977 16.9354 5.09955 16.9105C5.09932 16.8856 5.09413 16.861 5.0843 16.8381C5.07446 16.8152 5.06017 16.7945 5.04225 16.7773L4.39025 16.125H5.6875C5.73723 16.125 5.78492 16.1052 5.82008 16.0701C5.85525 16.0349 5.875 15.9872 5.875 15.9375C5.875 15.8878 5.85525 15.8401 5.82008 15.8049C5.78492 15.7698 5.73723 15.75 5.6875 15.75H4.39L5.0425 15.0977C5.07664 15.0624 5.09552 15.015 5.09507 14.9658C5.09461 14.9167 5.07487 14.8697 5.04009 14.8349C5.00531 14.8002 4.95828 14.7805 4.90911 14.7801C4.85995 14.7797 4.8126 14.7986 4.77725 14.8328L4.125 15.4847V14.1875Z" fill="white"/>
</svg>