<svg xmlns="http://www.w3.org/2000/svg" width="68" height="68" viewBox="0 0 68 68" fill="none">
<path fill-rule="evenodd" clip-rule="evenodd" d="M12.041 14.1666C12.041 12.1001 12.8619 10.1183 14.3231 8.6571C15.7843 7.1959 17.7661 6.375 19.8326 6.375H42.4622C43.2492 6.37545 44.0249 6.56327 44.725 6.92293C45.4251 7.28259 46.0295 7.80375 46.4883 8.44331L55.0278 20.3347C55.6313 21.179 55.9572 22.1905 55.9572 23.2246V53.8328C55.9572 55.8992 55.1363 57.8811 53.6751 59.3423C52.2139 60.8035 50.232 61.6244 48.1656 61.6244H19.8326C17.7661 61.6244 15.7843 60.8035 14.3231 59.3423C12.8619 57.8811 12.041 55.8992 12.041 53.8328V14.1666ZM19.8326 10.625C17.8776 10.625 16.291 12.2116 16.291 14.1666V53.8328C16.291 55.7878 17.8776 57.3744 19.8326 57.3744H48.1656C50.1206 57.3744 51.7072 55.7878 51.7072 53.8328V25.2079H42.499C41.9354 25.2079 41.3949 24.9841 40.9964 24.5856C40.5979 24.187 40.374 23.6465 40.374 23.083V10.625H19.8326Z" fill="#9E9E9E"/>
<path d="M42.7421 37.4529C42.5678 37.6711 42.3521 37.8528 42.1074 37.9876C41.8627 38.1224 41.5939 38.2076 41.3163 38.2384C41.0387 38.2692 40.7577 38.2449 40.4894 38.167C40.2212 38.0891 39.9709 37.9591 39.753 37.7844L36.1264 34.8774V44.624C36.1264 45.1876 35.9025 45.7281 35.504 46.1266C35.1055 46.5251 34.565 46.749 34.0014 46.749C33.4378 46.749 32.8973 46.5251 32.4988 46.1266C32.1003 45.7281 31.8764 45.1876 31.8764 44.624V34.8774L28.2441 37.7844C27.8038 38.1365 27.2416 38.2992 26.6813 38.2367C26.121 38.1743 25.6085 37.8918 25.2564 37.4515C24.9044 37.0112 24.7417 36.449 24.8041 35.8887C24.8665 35.3284 25.149 34.8158 25.5893 34.4638L32.6641 28.8028C33.0372 28.5013 33.5018 28.3354 33.9816 28.3325H34.0042C34.5142 28.3325 34.9789 28.5139 35.3444 28.8142L42.4106 34.4638C42.6288 34.6382 42.8105 34.8538 42.9453 35.0985C43.0801 35.3432 43.1653 35.612 43.1961 35.8896C43.2269 36.1672 43.2027 36.4482 43.1248 36.7165C43.0469 36.9847 42.9168 37.235 42.7421 37.4529Z" fill="#9E9E9E"/>
</svg>