<svg xmlns="http://www.w3.org/2000/svg" width="20" height="20" viewBox="0 0 20 20" fill="none">
  <path d="M9.99875 16.6655C10.8744 16.6666 11.7416 16.4947 12.5506 16.1596C13.3596 15.8245 14.0944 15.3328 14.7128 14.7128C15.3328 14.0944 15.8245 13.3596 16.1596 12.5506C16.4947 11.7416 16.6666 10.8744 16.6655 9.99875C16.6666 9.1231 16.4946 8.25586 16.1595 7.44687C15.8244 6.63788 15.3328 5.90309 14.7128 5.28472C14.0944 4.66472 13.3596 4.17304 12.5506 3.83794C11.7416 3.50283 10.8744 3.3309 9.99875 3.33204C9.1231 3.33092 8.25586 3.50286 7.44687 3.83796C6.63788 4.17307 5.90309 4.66474 5.28472 5.28472C4.66474 5.90309 4.17307 6.63788 3.83796 7.44687C3.50286 8.25586 3.33092 9.1231 3.33204 9.99875C3.3309 10.8744 3.50283 11.7416 3.83794 12.5506C4.17304 13.3596 4.66472 14.0944 5.28472 14.7128C5.90309 15.3328 6.63788 15.8244 7.44687 16.1595C8.25586 16.4946 9.1231 16.6666 9.99875 16.6655Z" stroke="#36BDB4" stroke-width="1.5" stroke-linejoin="round"/>
  <path d="M7.33203 10L9.33204 12L13.3321 8" stroke="#36BDB4" stroke-width="1.5" stroke-linecap="round" stroke-linejoin="round"/>
</svg>