<svg xmlns="http://www.w3.org/2000/svg" width="20" height="20" viewBox="0 0 20 20" fill="none">
<path d="M17.7062 9.6216H16.5298V16.0615H3.6906V5.5447H10.1102V4.24658H3.6906C3.52675 4.25172 3.36558 4.28964 3.21662 4.35811C3.06766 4.42657 2.93393 4.52418 2.82332 4.64519C2.71272 4.76619 2.62748 4.90813 2.57264 5.06263C2.5178 5.21712 2.49448 5.38104 2.50404 5.5447V16.0615C2.49863 16.2226 2.52503 16.3833 2.58175 16.5343C2.63846 16.6852 2.72437 16.8235 2.83457 16.9413C2.94477 17.059 3.0771 17.1539 3.22398 17.2204C3.37086 17.287 3.52943 17.3239 3.6906 17.3292H16.5298C16.691 17.3239 16.8495 17.287 16.9964 17.2204C17.1433 17.1539 17.2756 17.059 17.3858 16.9413C17.496 16.8235 17.5819 16.6852 17.6387 16.5343C17.6954 16.3833 17.7218 16.2226 17.7164 16.0615L17.7062 9.6216Z" fill="#9E9E9E"/>
<path d="M12.71 5.12855L8.3086 9.54012L7.86238 9.98635L7.78124 10.0675L6.23973 13.2722C6.1363 13.478 6.10036 13.7111 6.137 13.9384C6.17365 14.1658 6.28102 14.3758 6.44385 14.5386C6.60668 14.7014 6.8167 14.8088 7.04404 14.8455C7.27139 14.8821 7.5045 14.8462 7.71025 14.7427L10.8947 13.1911L11.4322 12.6536L11.8683 12.2175L16.2697 7.79578L16.7261 7.34955L16.9796 7.09601C17.3933 6.68152 17.6257 6.11983 17.6257 5.53421C17.6257 4.9486 17.3933 4.38691 16.9796 3.97242C16.5671 3.56287 16.0093 3.33318 15.428 3.3335C14.8436 3.33271 14.2824 3.56227 13.8662 3.97242L13.1563 4.67218L12.6999 5.11841L12.71 5.12855ZM7.58855 13.3736L8.78526 10.9092L10.0529 12.1871L7.58855 13.3736ZM9.61686 9.96607L13.5721 6.00072L14.8905 7.32927L10.9758 11.3453L9.61686 9.96607ZM15.3773 4.58091C15.4998 4.58049 15.6212 4.60449 15.7344 4.65151C15.8476 4.69852 15.9503 4.7676 16.0365 4.85473C16.2117 5.03139 16.3101 5.27015 16.3101 5.519C16.3101 5.76785 16.2117 6.00661 16.0365 6.18327L15.7829 6.42667L14.4645 5.10827L14.7181 4.85473C14.8096 4.7646 14.9195 4.69529 15.0402 4.65153C15.161 4.60777 15.2898 4.5906 15.4178 4.60119L15.3773 4.58091Z" fill="#9E9E9E"/>
</svg>