<svg xmlns="http://www.w3.org/2000/svg" width="68" height="68" viewBox="0 0 68 68" fill="none">
<path d="M7 9H25" stroke="#BDBDBD" stroke-width="4.3" stroke-linecap="round"/>
<path d="M14 29H43" stroke="#BDBDBD" stroke-width="4.3" stroke-linecap="round"/>
<path d="M7 39H33" stroke="#BDBDBD" stroke-width="4.3" stroke-linecap="round"/>
<path d="M17 19H34" stroke="#BDBDBD" stroke-width="4.3" stroke-linecap="round"/>
<path d="M43 19H54" stroke="#BDBDBD" stroke-width="4.3" stroke-linecap="round"/>
<path d="M34 9H56" stroke="#BDBDBD" stroke-width="4.3" stroke-linecap="round"/>
<path d="M47.0517 32.8254L35.4668 44.18L34.0187 45.6281C33.8447 45.8021 33.704 46.0066 33.6037 46.2314L29.3787 55.699C29.043 56.3668 28.9264 57.1233 29.0453 57.861C29.1642 58.5988 29.5126 59.2804 30.0411 59.8088C30.5696 60.3372 31.251 60.6857 31.9889 60.8046C32.7268 60.9235 33.4831 60.8069 34.1509 60.4712L42.5499 56.6274C43.4159 56.2311 44.2041 55.6833 44.8776 55.0099L45.6036 54.2839L47.0188 52.8687L58.6037 41.4811L60.0848 40.033L60.9075 39.2102C62.2503 37.8651 63.0041 36.0423 63.0041 34.1418C63.0041 32.2414 62.2503 30.4186 60.9075 29.0734C59.5685 27.7444 57.7588 26.999 55.8721 27C53.9753 26.9974 52.1548 27.7424 50.8037 29.0734L48.4998 31.3443L47.0188 32.7925L47.0517 32.8254ZM33.7559 56.0282L37.0137 48.623L41.1276 52.7699L33.7559 56.0282ZM39.7124 45.5623L49.8492 35.6558L54.1277 39.9672L44.1226 50.0382L39.7124 45.5623ZM55.7075 31.0481C56.1053 31.0468 56.4992 31.1247 56.8665 31.2773C57.2339 31.4298 57.567 31.654 57.8468 31.9368C58.4156 32.5101 58.7347 33.2849 58.7347 34.0925C58.7347 34.9 58.4156 35.6749 57.8468 36.2482L57.024 37.0381L52.7455 32.7596L53.5682 31.9368C53.8653 31.6443 54.2218 31.4193 54.6138 31.2773C55.0058 31.1353 55.4236 31.0796 55.8391 31.114L55.7075 31.0481Z" fill="#BDBDBD"/>
</svg>