<svg xmlns="http://www.w3.org/2000/svg" width="20" height="20" viewBox="0 0 20 20" fill="none">
  <path d="M10.0002 14.1686L8.75015 15.4186C8.19757 15.9711 7.44819 16.2814 6.66682 16.2814C5.88545 16.2814 5.13607 15.9711 4.58349 15.4186C4.03105 14.866 3.7207 14.1166 3.7207 13.3353C3.7207 12.5539 4.03105 11.8045 4.58349 11.2519L7.08349 8.75194C7.63607 8.19951 8.38545 7.88916 9.16682 7.88916C9.94819 7.88916 10.6976 8.19951 11.2502 8.75194" stroke="url(#paint0_linear_4838_9064)" stroke-width="1.5" stroke-linecap="round"/>
  <path d="M9.99609 5.83446L11.2461 4.58446C11.7987 4.03202 12.5481 3.72168 13.3294 3.72168C14.1108 3.72168 14.8602 4.03202 15.4128 4.58446C15.9652 5.13705 16.2755 5.88643 16.2755 6.6678C16.2755 7.44917 15.9652 8.19855 15.4128 8.75113L12.9128 11.2511C12.3602 11.8036 11.6108 12.1139 10.8294 12.1139C10.0481 12.1139 9.29868 11.8036 8.74609 11.2511" stroke="url(#paint1_linear_4838_9064)" stroke-width="1.5" stroke-linecap="round"/>
  <defs>
    <linearGradient id="paint0_linear_4838_9064" x1="7.48543" y1="16.2814" x2="7.48542" y2="7.88916" gradientUnits="userSpaceOnUse">
      <stop stop-color="#36BDB4"/>
      <stop offset="1" stop-color="#36BDB4" stop-opacity="0.6"/>
    </linearGradient>
    <linearGradient id="paint1_linear_4838_9064" x1="12.5108" y1="12.1139" x2="12.5108" y2="3.72168" gradientUnits="userSpaceOnUse">
      <stop stop-color="#36BDB4"/>
      <stop offset="1" stop-color="#36BDB4" stop-opacity="0.6"/>
    </linearGradient>
  </defs>
</svg>