<svg width="24" height="24" viewBox="0 0 24 24" fill="none" xmlns="http://www.w3.org/2000/svg">
<path d="M11.9992 17.0051L10.4992 18.5051C9.83611 19.168 8.93685 19.5404 7.99921 19.5404C7.06156 19.5404 6.16231 19.168 5.49921 18.5051C4.83628 17.842 4.46387 16.9427 4.46387 16.0051C4.46387 15.0674 4.83628 14.1682 5.49921 13.5051L8.49921 10.5051C9.16231 9.84214 10.0616 9.46973 10.9992 9.46973C11.9369 9.46973 12.8361 9.84214 13.4992 10.5051" stroke="white" stroke-width="2" stroke-linecap="round"/>
<path d="M11.9922 7.00311L13.4922 5.50311C14.1553 4.84019 15.0545 4.46777 15.9922 4.46777C16.9298 4.46777 17.8291 4.84019 18.4922 5.50311C19.1551 6.16622 19.5275 7.06547 19.5275 8.00311C19.5275 8.94076 19.1551 9.84001 18.4922 10.5031L15.4922 13.5031C14.8291 14.166 13.9298 14.5385 12.9922 14.5385C12.0545 14.5385 11.1553 14.166 10.4922 13.5031" stroke="white" stroke-width="2" stroke-linecap="round"/>
</svg>
