<svg xmlns="http://www.w3.org/2000/svg" width="48" height="48" viewBox="0 0 48 48" fill="none">
  <path d="M33.996 19.9964C37.3097 19.9964 39.9959 17.3101 39.9959 13.9965C39.9959 10.6828 37.3097 7.99658 33.996 7.99658C30.6823 7.99658 27.9961 10.6828 27.9961 13.9965C27.9961 17.3101 30.6823 19.9964 33.996 19.9964Z" stroke="#9E9E9E" stroke-width="3.99994" stroke-linecap="round" stroke-linejoin="round"/>
  <path d="M13.996 39.994C17.3097 39.994 19.9959 37.3077 19.9959 33.994C19.9959 30.6804 17.3097 27.9941 13.996 27.9941C10.6823 27.9941 7.99609 30.6804 7.99609 33.994C7.99609 37.3077 10.6823 39.994 13.996 39.994Z" stroke="#9E9E9E" stroke-width="3.99994" stroke-linecap="round" stroke-linejoin="round"/>
  <path d="M27.9958 27.9963H39.9956V37.9961C39.9956 38.5265 39.7849 39.0352 39.4098 39.4103C39.0348 39.7854 38.5261 39.9961 37.9956 39.9961H29.9958C29.4653 39.9961 28.9566 39.7854 28.5816 39.4103C28.2065 39.0352 27.9958 38.5265 27.9958 37.9961V27.9963ZM7.99609 7.99658H19.9959V17.9964C19.9959 18.5269 19.7852 19.0356 19.4101 19.4106C19.0351 19.7857 18.5264 19.9964 17.9959 19.9964H9.99606C9.46564 19.9964 8.95694 19.7857 8.58187 19.4106C8.2068 19.0356 7.99609 18.5269 7.99609 17.9964V7.99658Z" stroke="#9E9E9E" stroke-width="3.99994" stroke-linecap="round" stroke-linejoin="round"/>
</svg>