<svg width="48" height="48" viewBox="0 0 48 48" fill="none" xmlns="http://www.w3.org/2000/svg">
<path id="Vector" d="M34.498 20.4959C37.8116 20.4959 40.4979 17.8097 40.4979 14.496C40.4979 11.1823 37.8116 8.49609 34.498 8.49609C31.1843 8.49609 28.498 11.1823 28.498 14.496C28.498 17.8097 31.1843 20.4959 34.498 20.4959Z" stroke-width="3.99994" stroke-linecap="round" stroke-linejoin="round"/>
<path id="Vector_2" d="M14.498 40.494C17.8116 40.494 20.4979 37.8077 20.4979 34.494C20.4979 31.1804 17.8116 28.4941 14.498 28.4941C11.1843 28.4941 8.49805 31.1804 8.49805 34.494C8.49805 37.8077 11.1843 40.494 14.498 40.494Z" stroke-width="3.99994" stroke-linecap="round" stroke-linejoin="round"/>
<path id="Vector_3" d="M28.4977 28.4958H40.4976V38.4956C40.4976 39.0261 40.2868 39.5348 39.9118 39.9098C39.5367 40.2849 39.028 40.4956 38.4976 40.4956H30.4977C29.9673 40.4956 29.4586 40.2849 29.0835 39.9098C28.7085 39.5348 28.4977 39.0261 28.4977 38.4956V28.4958ZM8.49805 8.49609H20.4979V18.4959C20.4979 19.0264 20.2872 19.5351 19.9121 19.9101C19.537 20.2852 19.0283 20.4959 18.4979 20.4959H10.498C9.96759 20.4959 9.45889 20.2852 9.08382 19.9101C8.70876 19.5351 8.49805 19.0264 8.49805 18.4959V8.49609Z" stroke-width="3.99994" stroke-linecap="round" stroke-linejoin="round"/>
</svg>
