<svg width="20" height="20" viewBox="0 0 20 20" fill="none" xmlns="http://www.w3.org/2000/svg">
<g id="bxs:file-pdf">
<path id="Vector" d="M6.89203 12.2344C6.7387 12.2344 6.63536 12.2494 6.58203 12.2644V13.246C6.64536 13.261 6.72453 13.2652 6.83369 13.2652C7.23285 13.2652 7.47868 13.0635 7.47868 12.7227C7.47868 12.4177 7.26702 12.2344 6.89203 12.2344ZM9.7978 12.2444C9.63114 12.2444 9.52281 12.2594 9.45864 12.2744V14.4493C9.52281 14.4643 9.62614 14.4643 9.71947 14.4643C10.4003 14.4693 10.8436 14.0943 10.8436 13.301C10.8486 12.6094 10.4445 12.2444 9.7978 12.2444Z" fill="url(#paint0_linear_1895_2362)"/>
<path id="Vector_2" d="M11.6691 1.66797H5.00257C4.56055 1.66797 4.13664 1.84356 3.82408 2.15611C3.51153 2.46867 3.33594 2.89258 3.33594 3.3346V16.6677C3.33594 17.1097 3.51153 17.5336 3.82408 17.8462C4.13664 18.1587 4.56055 18.3343 5.00257 18.3343H15.0024C15.4444 18.3343 15.8683 18.1587 16.1809 17.8462C16.4934 17.5336 16.669 17.1097 16.669 16.6677V6.66787L11.6691 1.66797ZM7.91751 13.4927C7.66002 13.7344 7.28003 13.8427 6.83754 13.8427C6.75174 13.8437 6.66598 13.8387 6.58087 13.8277V15.016H5.83589V11.7361C6.17209 11.686 6.51181 11.6631 6.8517 11.6678C7.31586 11.6678 7.64585 11.7561 7.86835 11.9336C8.08001 12.1019 8.22334 12.3778 8.22334 12.7028C8.22251 13.0294 8.11418 13.3052 7.91751 13.4927ZM11.09 14.6219C10.74 14.9127 10.2075 15.051 9.55665 15.051C9.16666 15.051 8.89083 15.026 8.70333 15.001V11.7369C9.03966 11.6878 9.37927 11.6647 9.71915 11.6678C10.35 11.6678 10.76 11.7811 11.08 12.0228C11.4258 12.2794 11.6424 12.6886 11.6424 13.2761C11.6424 13.9119 11.4099 14.3511 11.09 14.6219ZM14.1691 12.3094H12.8924V13.0686H14.0857V13.6802H12.8924V15.0169H12.1374V11.6928H14.1691V12.3094ZM11.6691 7.50119H10.8358V3.3346L15.0024 7.50119H11.6691Z" fill="url(#paint1_linear_1895_2362)"/>
</g>
<defs>
<linearGradient id="paint0_linear_1895_2362" x1="8.71285" y1="14.4644" x2="8.71285" y2="12.2344" gradientUnits="userSpaceOnUse">
<stop stop-color="#36BDB4"/>
<stop offset="1" stop-color="#36BDB4" stop-opacity="0.6"/>
</linearGradient>
<linearGradient id="paint1_linear_1895_2362" x1="10.0025" y1="18.3343" x2="10.0025" y2="1.66797" gradientUnits="userSpaceOnUse">
<stop stop-color="#36BDB4"/>
<stop offset="1" stop-color="#36BDB4" stop-opacity="0.6"/>
</linearGradient>
</defs>
</svg>
