<svg xmlns="http://www.w3.org/2000/svg" width="16" height="16" viewBox="0 0 16 16" fill="none">
  <path d="M12.0007 8.66536H8.66732V11.9987C8.66732 12.1755 8.59708 12.3451 8.47206 12.4701C8.34703 12.5951 8.17746 12.6654 8.00065 12.6654C7.82384 12.6654 7.65427 12.5951 7.52925 12.4701C7.40422 12.3451 7.33398 12.1755 7.33398 11.9987V8.66536H4.00065C3.82384 8.66536 3.65427 8.59513 3.52925 8.4701C3.40422 8.34508 3.33398 8.17551 3.33398 7.9987C3.33398 7.82189 3.40422 7.65232 3.52925 7.52729C3.65427 7.40227 3.82384 7.33203 4.00065 7.33203H7.33398V3.9987C7.33398 3.82189 7.40422 3.65232 7.52925 3.52729C7.65427 3.40227 7.82384 3.33203 8.00065 3.33203C8.17746 3.33203 8.34703 3.40227 8.47206 3.52729C8.59708 3.65232 8.66732 3.82189 8.66732 3.9987V7.33203H12.0007C12.1775 7.33203 12.347 7.40227 12.4721 7.52729C12.5971 7.65232 12.6673 7.82189 12.6673 7.9987C12.6673 8.17551 12.5971 8.34508 12.4721 8.4701C12.347 8.59513 12.1775 8.66536 12.0007 8.66536Z" fill="#36BDB4"/>
</svg>