<svg xmlns="http://www.w3.org/2000/svg" width="20" height="20" viewBox="0 0 20 20" fill="none">
  <path d="M3 15.4444V4.55556C3 4.143 3.16389 3.74733 3.45561 3.45561C3.74733 3.16389 4.143 3 4.55556 3H13.2449C13.6574 3.00009 14.053 3.16403 14.3447 3.45578L16.5442 5.65533C16.836 5.94699 16.9999 6.34259 17 6.75511V15.4444C17 15.857 16.8361 16.2527 16.5444 16.5444C16.2527 16.8361 15.857 17 15.4444 17H4.55556C4.143 17 3.74733 16.8361 3.45561 16.5444C3.16389 16.2527 3 15.857 3 15.4444Z" stroke="white" stroke-width="1.5"/>
  <path d="M7.35621 7.66667H12.6451C12.7689 7.66667 12.8876 7.6175 12.9751 7.52998C13.0626 7.44247 13.1118 7.32377 13.1118 7.2V3.46667C13.1118 3.3429 13.0626 3.2242 12.9751 3.13668C12.8876 3.04917 12.7689 3 12.6451 3H7.35621C7.23244 3 7.11374 3.04917 7.02622 3.13668C6.93871 3.2242 6.88954 3.3429 6.88954 3.46667V7.2C6.88954 7.32377 6.93871 7.44247 7.02622 7.52998C7.11374 7.6175 7.23244 7.66667 7.35621 7.66667ZM5.33398 11.2444V17H14.6673V11.2444C14.6673 11.1207 14.6182 11.002 14.5306 10.9145C14.4431 10.8269 14.3244 10.7778 14.2007 10.7778H5.80065C5.67688 10.7778 5.55818 10.8269 5.47067 10.9145C5.38315 11.002 5.33398 11.1207 5.33398 11.2444Z" stroke="white" stroke-width="1.5"/>
</svg>