<svg width="20" height="20" viewBox="0 0 20 20" fill="none" xmlns="http://www.w3.org/2000/svg">
<path d="M16.2073 8.86849L12.4851 7.5149L11.1315 3.79268C11.0471 3.56038 10.8932 3.3597 10.6908 3.21789C10.4883 3.07607 10.2472 3 10 3C9.75284 3 9.51166 3.07607 9.30923 3.21789C9.1068 3.3597 8.95292 3.56038 8.86849 3.79268L7.5149 7.5149L3.79268 8.86849C3.56038 8.95292 3.3597 9.1068 3.21789 9.30923C3.07607 9.51166 3 9.75284 3 10C3 10.2472 3.07607 10.4883 3.21789 10.6908C3.3597 10.8932 3.56038 11.0471 3.79268 11.1315L7.5149 12.4851L8.86849 16.2073C8.95292 16.4396 9.1068 16.6403 9.30923 16.7821C9.51166 16.9239 9.75284 17 10 17C10.2472 17 10.4883 16.9239 10.6908 16.7821C10.8932 16.6403 11.0471 16.4396 11.1315 16.2073L12.4851 12.4851L16.2073 11.1315C16.4396 11.0471 16.6403 10.8932 16.7821 10.6908C16.9239 10.4883 17 10.2472 17 10C17 9.75284 16.9239 9.51166 16.7821 9.30923C16.6403 9.1068 16.4396 8.95292 16.2073 8.86849ZM11.8834 11.1617C11.7179 11.2217 11.5676 11.3173 11.443 11.4418C11.3185 11.5663 11.2229 11.7167 11.1629 11.8822L10 15.0806L8.83711 11.8822C8.77711 11.7167 8.68147 11.5663 8.55696 11.4418C8.43245 11.3173 8.28211 11.2217 8.11656 11.1617L4.91816 10L8.11656 8.83711C8.28211 8.77711 8.43245 8.68147 8.55696 8.55696C8.68147 8.43245 8.77711 8.28211 8.83711 8.11656L10 4.91816L11.1629 8.11656C11.2229 8.28211 11.3185 8.43245 11.443 8.55696C11.5676 8.68147 11.7179 8.77711 11.8834 8.83711L15.0818 10L11.8834 11.1617Z" fill="white"/>
<path d="M16.4129 2.2129C16.4129 2.15644 16.3905 2.10228 16.3505 2.06236C16.3106 2.02243 16.2565 2 16.2 2C16.1435 2 16.0894 2.02243 16.0495 2.06236C16.0095 2.10228 15.9871 2.15644 15.9871 2.2129V3.68619L15.2465 2.94529C15.2268 2.92497 15.2033 2.90876 15.1773 2.89761C15.1514 2.88647 15.1234 2.88061 15.0952 2.88037C15.0669 2.88014 15.0389 2.88554 15.0127 2.89626C14.9865 2.90698 14.9628 2.9228 14.9428 2.9428C14.9228 2.9628 14.907 2.98657 14.8963 3.01274C14.8856 3.03891 14.8803 3.06695 14.8805 3.09522C14.8808 3.12349 14.8867 3.15142 14.8978 3.17739C14.909 3.20336 14.9252 3.22685 14.9456 3.24648L15.6859 3.9871H14.2129C14.1564 3.9871 14.1023 4.00953 14.0624 4.04946C14.0224 4.08938 14 4.14354 14 4.2C14 4.25647 14.0224 4.31062 14.0624 4.35055C14.1023 4.39047 14.1564 4.4129 14.2129 4.4129H15.6862L14.9453 5.15352C14.925 5.17317 14.9088 5.19667 14.8976 5.22265C14.8865 5.24863 14.8806 5.27657 14.8804 5.30484C14.8801 5.33311 14.8855 5.36114 14.8963 5.3873C14.907 5.41346 14.9228 5.43723 14.9428 5.45721C14.9628 5.47719 14.9866 5.49298 15.0127 5.50368C15.0389 5.51437 15.067 5.51974 15.0952 5.51948C15.1235 5.51923 15.1514 5.51334 15.1774 5.50217C15.2034 5.491 15.2268 5.47477 15.2465 5.45442L15.9871 4.71409V6.1871C15.9871 6.24356 16.0095 6.29771 16.0495 6.33764C16.0894 6.37757 16.1435 6.4 16.2 6.4C16.2565 6.4 16.3106 6.37757 16.3505 6.33764C16.3905 6.29771 16.4129 6.24356 16.4129 6.1871V4.71381L17.1535 5.45471C17.1732 5.47503 17.1967 5.49124 17.2227 5.50239C17.2486 5.51353 17.2766 5.51939 17.3048 5.51963C17.3331 5.51986 17.3611 5.51446 17.3873 5.50374C17.4135 5.49302 17.4372 5.4772 17.4572 5.4572C17.4772 5.4372 17.493 5.41343 17.5037 5.38726C17.5144 5.36109 17.5197 5.33305 17.5195 5.30478C17.5192 5.27651 17.5133 5.24858 17.5022 5.22261C17.491 5.19664 17.4748 5.17315 17.4544 5.15352L16.7141 4.4129H18.1871C18.2436 4.4129 18.2977 4.39047 18.3376 4.35055C18.3776 4.31062 18.4 4.25647 18.4 4.2C18.4 4.14354 18.3776 4.08938 18.3376 4.04946C18.2977 4.00953 18.2436 3.9871 18.1871 3.9871H16.7138L17.4547 3.24648C17.4935 3.2063 17.5149 3.15251 17.5144 3.09669C17.5139 3.04087 17.4915 2.98748 17.452 2.94803C17.4125 2.90857 17.3591 2.8862 17.3033 2.88575C17.2474 2.88529 17.1937 2.90677 17.1535 2.94557L16.4129 3.68591V2.2129Z" fill="white"/>
<path d="M4.4129 14.2129C4.4129 14.1564 4.39047 14.1023 4.35055 14.0624C4.31062 14.0224 4.25647 14 4.2 14C4.14353 14 4.08938 14.0224 4.04945 14.0624C4.00953 14.1023 3.9871 14.1564 3.9871 14.2129V15.6862L3.24648 14.9453C3.22683 14.925 3.20333 14.9088 3.17735 14.8976C3.15137 14.8865 3.12343 14.8806 3.09516 14.8804C3.06689 14.8801 3.03886 14.8855 3.0127 14.8963C2.98654 14.907 2.96277 14.9228 2.94279 14.9428C2.92281 14.9628 2.90702 14.9866 2.89632 15.0127C2.88563 15.0389 2.88026 15.0669 2.88052 15.0952C2.88077 15.1235 2.88666 15.1514 2.89783 15.1774C2.909 15.2034 2.92523 15.2268 2.94557 15.2465L3.68591 15.9871H2.2129C2.15644 15.9871 2.10229 16.0095 2.06236 16.0495C2.02243 16.0894 2 16.1435 2 16.2C2 16.2565 2.02243 16.3106 2.06236 16.3505C2.10229 16.3905 2.15644 16.4129 2.2129 16.4129H3.68619L2.94529 17.1535C2.92497 17.1732 2.90876 17.1967 2.89761 17.2227C2.88647 17.2486 2.88061 17.2766 2.88037 17.3048C2.88014 17.3331 2.88554 17.3611 2.89626 17.3873C2.90698 17.4135 2.9228 17.4372 2.9428 17.4572C2.96279 17.4772 2.98657 17.493 3.01274 17.5037C3.03891 17.5144 3.06695 17.5197 3.09522 17.5195C3.12349 17.5192 3.15142 17.5133 3.17739 17.5022C3.20336 17.491 3.22685 17.4748 3.24648 17.4544L3.9871 16.7141V18.1871C3.9871 18.2436 4.00953 18.2977 4.04945 18.3376C4.08938 18.3776 4.14353 18.4 4.2 18.4C4.25647 18.4 4.31062 18.3776 4.35055 18.3376C4.39047 18.2977 4.4129 18.2436 4.4129 18.1871V16.7138L5.15352 17.4547C5.17317 17.475 5.19667 17.4912 5.22265 17.5024C5.24863 17.5135 5.27657 17.5194 5.30484 17.5196C5.33311 17.5199 5.36114 17.5145 5.3873 17.5037C5.41346 17.493 5.43723 17.4772 5.45721 17.4572C5.47719 17.4372 5.49299 17.4134 5.50368 17.3873C5.51437 17.3611 5.51974 17.333 5.51948 17.3048C5.51923 17.2765 5.51334 17.2486 5.50217 17.2226C5.491 17.1966 5.47477 17.1732 5.45443 17.1535L4.71409 16.4129H6.1871C6.24356 16.4129 6.29772 16.3905 6.33764 16.3505C6.37757 16.3106 6.4 16.2565 6.4 16.2C6.4 16.1435 6.37757 16.0894 6.33764 16.0495C6.29772 16.0095 6.24356 15.9871 6.1871 15.9871H4.71381L5.45471 15.2465C5.49347 15.2063 5.51491 15.1525 5.5144 15.0967C5.51389 15.0409 5.49147 14.9875 5.45198 14.948C5.41248 14.9086 5.35907 14.8862 5.30325 14.8857C5.24743 14.8853 5.19366 14.9068 5.15352 14.9456L4.4129 15.6859V14.2129Z" fill="white"/>
</svg>
