<svg xmlns="http://www.w3.org/2000/svg" width="100%" height="100%" viewBox="0 0 20 20" fill="none">
  <path d="M4 6.11111H16.4444M4.77778 6.11111L5.55556 15.4444C5.55556 15.857 5.71944 16.2527 6.01117 16.5444C6.30289 16.8361 6.69855 17 7.11111 17H13.3333C13.7459 17 14.1416 16.8361 14.4333 16.5444C14.725 16.2527 14.8889 15.857 14.8889 15.4444L15.6667 6.11111M7.88889 6.11111V3.77778C7.88889 3.5715 7.97083 3.37367 8.11669 3.22781C8.26256 3.08194 8.46039 3 8.66667 3H11.7778C11.9841 3 12.1819 3.08194 12.3277 3.22781C12.4736 3.37367 12.5556 3.5715 12.5556 3.77778V6.11111M8.66667 10L11.7778 13.1111M11.7778 10L8.66667 13.1111"/>
</svg>