<svg xmlns="http://www.w3.org/2000/svg" width="68" height="68" viewBox="0 0 68 68" fill="none">
<path d="M42.7421 37.4524C42.5678 37.6706 42.3521 37.8523 42.1074 37.9871C41.8627 38.1219 41.5939 38.2071 41.3163 38.2379C41.0387 38.2687 40.7577 38.2444 40.4894 38.1665C40.2212 38.0886 39.9709 37.9586 39.753 37.7839L36.1264 34.877V44.6235C36.1264 45.1871 35.9025 45.7276 35.504 46.1261C35.1055 46.5246 34.565 46.7485 34.0014 46.7485C33.4378 46.7485 32.8973 46.5246 32.4988 46.1261C32.1003 45.7276 31.8764 45.1871 31.8764 44.6235V34.877L28.2441 37.7839C27.8038 38.136 27.2416 38.2987 26.6813 38.2362C26.121 38.1738 25.6085 37.8914 25.2564 37.451C24.9044 37.0107 24.7417 36.4485 24.8041 35.8882C24.8665 35.3279 25.149 34.8153 25.5893 34.4633L32.6641 28.8024C33.0372 28.5008 33.5018 28.3349 33.9816 28.332H34.0042C34.5142 28.332 34.9789 28.5134 35.3444 28.8137L42.4106 34.4633C42.6288 34.6377 42.8105 34.8534 42.9453 35.098C43.0801 35.3427 43.1653 35.6115 43.1961 35.8891C43.2269 36.1668 43.2027 36.4477 43.1248 36.716C43.0469 36.9842 42.9168 37.2345 42.7421 37.4524Z" fill="#BDBDBD"/>
<path d="M48 59.85H20C16.7691 59.85 14.15 57.2309 14.15 54V14C14.15 10.7691 16.7691 8.15 20 8.15H40.7704C42.7054 8.15 44.5153 9.10687 45.6048 10.706L52.8345 21.3165C53.4961 22.2876 53.85 23.4355 53.85 24.6105V54C53.85 57.2309 51.2309 59.85 48 59.85Z" stroke="#BDBDBD" stroke-width="4.3"/>
<path d="M41 9V22C41 23.1046 41.8954 24 43 24H53" stroke="#BDBDBD" stroke-width="4.3" stroke-linecap="round"/>
</svg>