<svg width="100%" height="100%" viewBox="0 0 265 138" fill="none" xmlns="http://www.w3.org/2000/svg">
<g filter="url(#filter0_d_443_4927)">
<path d="M65 43.9989C77.5 34.5007 89.5 33.9982 101.5 43.9986" stroke="#3ED7CD" stroke-width="8"/>
<circle cx="188" cy="37" r="5" fill="#3ED7CD"/>
<path d="M66.2677 98.66L50.2477 77.24L57.0277 72.5L72.8677 93.74L66.2677 98.66ZM53.4877 92.6C50.4077 92.6 47.5477 92.06 44.9077 90.98C42.3077 89.9 40.0477 88.4 38.1277 86.48C36.2477 84.52 34.7677 82.22 33.6877 79.58C32.6477 76.94 32.1277 74.04 32.1277 70.88C32.1277 67.76 32.6477 64.88 33.6877 62.24C34.7677 59.6 36.2477 57.3 38.1277 55.34C40.0477 53.38 42.3077 51.86 44.9077 50.78C47.5477 49.7 50.4077 49.16 53.4877 49.16C56.5677 49.16 59.3877 49.7 61.9477 50.78C64.5477 51.86 66.8077 53.38 68.7277 55.34C70.6477 57.3 72.1277 59.6 73.1677 62.24C74.2477 64.88 74.7877 67.78 74.7877 70.94C74.7877 74.02 74.2477 76.88 73.1677 79.52C72.1277 82.16 70.6477 84.46 68.7277 86.42C66.8077 88.38 64.5477 89.9 61.9477 90.98C59.3877 92.06 56.5677 92.6 53.4877 92.6ZM53.4877 84.08C55.2477 84.08 56.8677 83.76 58.3477 83.12C59.8277 82.44 61.1077 81.52 62.1877 80.36C63.3077 79.16 64.1677 77.76 64.7677 76.16C65.3677 74.56 65.6677 72.82 65.6677 70.94C65.6677 69.02 65.3677 67.26 64.7677 65.66C64.1677 64.06 63.3077 62.66 62.1877 61.46C61.1077 60.26 59.8277 59.34 58.3477 58.7C56.8677 58.02 55.2477 57.68 53.4877 57.68C51.7277 57.68 50.0877 58.02 48.5677 58.7C47.0877 59.34 45.7877 60.26 44.6677 61.46C43.5877 62.62 42.7477 64.02 42.1477 65.66C41.5477 67.26 41.2477 69.02 41.2477 70.94C41.2477 73.46 41.7677 75.72 42.8077 77.72C43.8877 79.68 45.3477 81.24 47.1877 82.4C49.0277 83.52 51.1277 84.08 53.4877 84.08ZM103.134 92V52.22H111.654V92H103.134ZM97.1945 67.88V60.26H118.194V67.88H97.1945ZM134.608 92.6C132.328 92.6 130.348 92.1 128.668 91.1C126.988 90.06 125.688 88.6 124.768 86.72C123.888 84.8 123.448 82.52 123.448 79.88V60.26H131.968V78.32C131.968 80.56 132.488 82.32 133.528 83.6C134.608 84.84 136.088 85.46 137.968 85.46C138.928 85.46 139.788 85.32 140.548 85.04C141.348 84.72 142.028 84.28 142.588 83.72C143.148 83.16 143.588 82.5 143.908 81.74C144.228 80.98 144.388 80.14 144.388 79.22V60.26H152.908V92H144.808L144.568 85.46L146.068 84.74C145.628 86.22 144.828 87.56 143.668 88.76C142.548 89.96 141.208 90.9 139.648 91.58C138.088 92.26 136.408 92.6 134.608 92.6ZM173.961 92.6C171.201 92.6 168.701 91.9 166.461 90.5C164.261 89.1 162.521 87.16 161.241 84.68C160.001 82.16 159.381 79.32 159.381 76.16C159.381 72.96 160.001 70.12 161.241 67.64C162.521 65.16 164.261 63.2 166.461 61.76C168.661 60.32 171.161 59.6 173.961 59.6C175.441 59.6 176.861 59.84 178.221 60.32C179.621 60.76 180.861 61.38 181.941 62.18C183.021 62.98 183.901 63.88 184.581 64.88C185.261 65.84 185.661 66.84 185.781 67.88L183.621 68.3V47.6H192.081V92H184.041L183.681 84.68L185.361 84.92C185.321 85.88 184.981 86.82 184.341 87.74C183.701 88.66 182.841 89.5 181.761 90.26C180.721 90.98 179.521 91.56 178.161 92C176.841 92.4 175.441 92.6 173.961 92.6ZM175.821 85.52C177.461 85.52 178.861 85.12 180.021 84.32C181.221 83.52 182.161 82.42 182.841 81.02C183.521 79.62 183.861 78 183.861 76.16C183.861 74.28 183.521 72.64 182.841 71.24C182.161 69.8 181.221 68.7 180.021 67.94C178.861 67.14 177.461 66.74 175.821 66.74C174.261 66.74 172.881 67.14 171.681 67.94C170.481 68.7 169.541 69.8 168.861 71.24C168.221 72.64 167.901 74.28 167.901 76.16C167.901 78 168.221 79.62 168.861 81.02C169.541 82.42 170.481 83.52 171.681 84.32C172.881 85.12 174.261 85.52 175.821 85.52ZM204.828 105.8L211.788 89.54L211.908 94.52L196.368 60.26H206.028L213.828 78.68C214.108 79.32 214.408 80.1 214.728 81.02C215.048 81.94 215.288 82.82 215.448 83.66L214.008 84.26C214.288 83.58 214.568 82.8 214.848 81.92C215.168 81.04 215.488 80.1 215.808 79.1L222.468 60.26H232.248L218.928 92L213.468 105.8H204.828Z" fill="#3ED7CD"/>
</g>
<defs>
<filter id="filter0_d_443_4927" x="-3" y="0" width="268" height="139" filterUnits="userSpaceOnUse" color-interpolation-filters="sRGB">
<feFlood flood-opacity="0" result="BackgroundImageFix"/>
<feColorMatrix in="SourceAlpha" type="matrix" values="0 0 0 0 0 0 0 0 0 0 0 0 0 0 0 0 0 0 127 0" result="hardAlpha"/>
<feOffset/>
<feGaussianBlur stdDeviation="16"/>
<feComposite in2="hardAlpha" operator="out"/>
<feColorMatrix type="matrix" values="0 0 0 0 0.211765 0 0 0 0 0.741176 0 0 0 0 0.705882 0 0 0 0.24 0"/>
<feBlend mode="normal" in2="BackgroundImageFix" result="effect1_dropShadow_443_4927"/>
<feBlend mode="normal" in="SourceGraphic" in2="effect1_dropShadow_443_4927" result="shape"/>
</filter>
</defs>
</svg>
