<svg width="100%" height="100%" viewBox="0 0 204 75" fill="none" xmlns="http://www.w3.org/2000/svg">
<path d="M36 11.9989C48.5 2.50065 60.5 1.9982 72.5 11.9986" stroke="#3ED7CD" stroke-width="8"/>
<circle cx="159" cy="5" r="5" fill="#3ED7CD"/>
<path d="M37.2677 66.66L21.2477 45.24L28.0277 40.5L43.8677 61.74L37.2677 66.66ZM24.4877 60.6C21.4077 60.6 18.5477 60.06 15.9077 58.98C13.3077 57.9 11.0477 56.4 9.12774 54.48C7.24773 52.52 5.76773 50.22 4.68773 47.58C3.64773 44.94 3.12773 42.04 3.12773 38.88C3.12773 35.76 3.64773 32.88 4.68773 30.24C5.76773 27.6 7.24773 25.3 9.12774 23.34C11.0477 21.38 13.3077 19.86 15.9077 18.78C18.5477 17.7 21.4077 17.16 24.4877 17.16C27.5677 17.16 30.3877 17.7 32.9477 18.78C35.5477 19.86 37.8077 21.38 39.7277 23.34C41.6477 25.3 43.1277 27.6 44.1677 30.24C45.2477 32.88 45.7877 35.78 45.7877 38.94C45.7877 42.02 45.2477 44.88 44.1677 47.52C43.1277 50.16 41.6477 52.46 39.7277 54.42C37.8077 56.38 35.5477 57.9 32.9477 58.98C30.3877 60.06 27.5677 60.6 24.4877 60.6ZM24.4877 52.08C26.2477 52.08 27.8677 51.76 29.3477 51.12C30.8277 50.44 32.1077 49.52 33.1877 48.36C34.3077 47.16 35.1677 45.76 35.7677 44.16C36.3677 42.56 36.6677 40.82 36.6677 38.94C36.6677 37.02 36.3677 35.26 35.7677 33.66C35.1677 32.06 34.3077 30.66 33.1877 29.46C32.1077 28.26 30.8277 27.34 29.3477 26.7C27.8677 26.02 26.2477 25.68 24.4877 25.68C22.7277 25.68 21.0877 26.02 19.5677 26.7C18.0877 27.34 16.7877 28.26 15.6677 29.46C14.5877 30.62 13.7477 32.02 13.1477 33.66C12.5477 35.26 12.2477 37.02 12.2477 38.94C12.2477 41.46 12.7677 43.72 13.8077 45.72C14.8877 47.68 16.3477 49.24 18.1877 50.4C20.0277 51.52 22.1277 52.08 24.4877 52.08ZM74.1345 60V20.22H82.6545V60H74.1345ZM68.1945 35.88V28.26H89.1945V35.88H68.1945ZM105.608 60.6C103.328 60.6 101.348 60.1 99.6677 59.1C97.9877 58.06 96.6877 56.6 95.7677 54.72C94.8877 52.8 94.4477 50.52 94.4477 47.88V28.26H102.968V46.32C102.968 48.56 103.488 50.32 104.528 51.6C105.608 52.84 107.088 53.46 108.968 53.46C109.928 53.46 110.788 53.32 111.548 53.04C112.348 52.72 113.028 52.28 113.588 51.72C114.148 51.16 114.588 50.5 114.908 49.74C115.228 48.98 115.388 48.14 115.388 47.22V28.26H123.908V60H115.808L115.568 53.46L117.068 52.74C116.628 54.22 115.828 55.56 114.668 56.76C113.548 57.96 112.208 58.9 110.648 59.58C109.088 60.26 107.408 60.6 105.608 60.6ZM144.961 60.6C142.201 60.6 139.701 59.9 137.461 58.5C135.261 57.1 133.521 55.16 132.241 52.68C131.001 50.16 130.381 47.32 130.381 44.16C130.381 40.96 131.001 38.12 132.241 35.64C133.521 33.16 135.261 31.2 137.461 29.76C139.661 28.32 142.161 27.6 144.961 27.6C146.441 27.6 147.861 27.84 149.221 28.32C150.621 28.76 151.861 29.38 152.941 30.18C154.021 30.98 154.901 31.88 155.581 32.88C156.261 33.84 156.661 34.84 156.781 35.88L154.621 36.3V15.6H163.081V60H155.041L154.681 52.68L156.361 52.92C156.321 53.88 155.981 54.82 155.341 55.74C154.701 56.66 153.841 57.5 152.761 58.26C151.721 58.98 150.521 59.56 149.161 60C147.841 60.4 146.441 60.6 144.961 60.6ZM146.821 53.52C148.461 53.52 149.861 53.12 151.021 52.32C152.221 51.52 153.161 50.42 153.841 49.02C154.521 47.62 154.861 46 154.861 44.16C154.861 42.28 154.521 40.64 153.841 39.24C153.161 37.8 152.221 36.7 151.021 35.94C149.861 35.14 148.461 34.74 146.821 34.74C145.261 34.74 143.881 35.14 142.681 35.94C141.481 36.7 140.541 37.8 139.861 39.24C139.221 40.64 138.901 42.28 138.901 44.16C138.901 46 139.221 47.62 139.861 49.02C140.541 50.42 141.481 51.52 142.681 52.32C143.881 53.12 145.261 53.52 146.821 53.52ZM175.828 73.8L182.788 57.54L182.908 62.52L167.368 28.26H177.028L184.828 46.68C185.108 47.32 185.408 48.1 185.728 49.02C186.048 49.94 186.288 50.82 186.448 51.66L185.008 52.26C185.288 51.58 185.568 50.8 185.848 49.92C186.168 49.04 186.488 48.1 186.808 47.1L193.468 28.26H203.248L189.928 60L184.468 73.8H175.828Z" fill="#3ED7CD"/>
</svg>
